<svg width="160" height="96" viewBox="0 0 160 96" fill="none" xmlns="http://www.w3.org/2000/svg">
<path d="M91.043 91.5554H74.6271L75.9819 71.7637H89.6882L91.043 91.5554Z" fill="#002966"/>
<path d="M93.1879 88.3829C92.9847 88.0893 92.6573 87.9087 92.296 87.9087H83.2074H82.451H73.3624C73.0011 87.9087 72.6737 88.0893 72.4705 88.3829L69.9866 92.086C69.5124 92.7973 70.0205 93.757 70.8786 93.757H82.451H83.2074H94.7799C95.6379 93.757 96.146 92.7973 95.6718 92.086L93.1879 88.3829Z" fill="#0CAAEE"/>
<path d="M123.017 77.0247H42.6419C40.0903 77.0247 38.0242 74.9586 38.0242 72.407V21.5786C38.0242 19.0271 40.0903 16.9609 42.6419 16.9609H123.017C125.568 16.9609 127.634 19.0271 127.634 21.5786V72.407C127.646 74.9586 125.568 77.0247 123.017 77.0247Z" fill="#089FE0"/>
<path d="M123.514 20.9351H42.1565V72.4296H123.514V20.9351Z" fill="#DFF6FD"/>
<path d="M67.5038 43H29.4194C28.0816 43 27 44.0816 27 45.4194V57.6967C27 59.0345 28.0816 60.1162 29.4194 60.1162H53.2814L62.3709 67.8393L58.0539 60.1162H67.5038C68.8416 60.1162 69.9232 59.0345 69.9232 57.6967V45.4194C69.9232 44.0816 68.8416 43 67.5038 43Z" fill="#F54291"/>
<path d="M67.02 46.311H41.3552V47.7912H67.02V46.311Z" fill="white"/>
<path d="M67.02 49.3286H41.3552V50.8087H67.02V49.3286Z" fill="white"/>
<path d="M67.02 52.3457H41.3552V53.8258H67.02V52.3457Z" fill="white"/>
<path d="M58.386 55.353H41.3552V56.8332H58.386V55.353Z" fill="white"/>
<path d="M39.3248 51.2925C39.3248 54.025 37.1046 56.2452 34.3721 56.2452C31.6396 56.2452 29.4194 54.025 29.4194 51.2925C29.4194 48.56 31.6396 46.3398 34.3721 46.3398C37.1046 46.3398 39.3248 48.56 39.3248 51.2925Z" fill="#0CAAEE"/>
<path d="M34.372 51.2642C35.1423 51.2642 35.7667 50.6185 35.7667 49.822C35.7667 49.0255 35.1423 48.3799 34.372 48.3799C33.6017 48.3799 32.9773 49.0255 32.9773 49.822C32.9773 50.6185 33.6017 51.2642 34.372 51.2642Z" fill="white"/>
<path d="M34.4006 51.4727H34.3532C32.9869 51.4727 31.8768 52.5828 31.8768 53.949V55.5335C32.6169 55.9699 33.4613 56.2356 34.3816 56.2356C35.302 56.2356 36.1464 55.9699 36.8864 55.5335V53.949C36.8769 52.5828 35.7669 51.4727 34.4006 51.4727Z" fill="white"/>
<path d="M130.278 2H88.6449C87.1824 2 86 3.18242 86 4.64488V18.0663C86 19.5288 87.1824 20.7112 88.6449 20.7112H100.697L97.4715 29.154L105.914 20.7112H130.278C131.741 20.7112 132.923 19.5288 132.923 18.0663V4.64488C132.923 3.18242 131.741 2 130.278 2Z" fill="#F54291"/>
<path d="M129.749 5.61963H101.693V7.23767H129.749V5.61963Z" fill="white"/>
<path d="M129.749 8.91797H101.693V10.536H129.749V8.91797Z" fill="white"/>
<path d="M129.749 12.2163H101.693V13.8343H129.749V12.2163Z" fill="white"/>
<path d="M120.311 15.5044H101.693V17.1224H120.311V15.5044Z" fill="white"/>
<path d="M99.4734 11.0651C99.4734 14.0522 97.0464 16.4793 94.0592 16.4793C91.0721 16.4793 88.645 14.0522 88.645 11.0651C88.645 8.07794 91.0721 5.65088 94.0592 5.65088C97.0568 5.65088 99.4734 8.07794 99.4734 11.0651Z" fill="#0CAAEE"/>
<path d="M95.5941 9.45742C95.5941 10.3287 94.9095 11.034 94.0694 11.034C93.2292 11.034 92.5447 10.3287 92.5447 9.45742C92.5447 8.58616 93.2292 7.88086 94.0694 7.88086C94.9095 7.88086 95.5941 8.58616 95.5941 9.45742Z" fill="white"/>
<path d="M94.0903 11.2622H94.0384C92.5448 11.2622 91.3313 12.4757 91.3313 13.9693V15.7015C92.1403 16.1786 93.0634 16.469 94.0695 16.469C95.0756 16.469 95.9987 16.1786 96.8077 15.7015V13.9693C96.7974 12.4757 95.5838 11.2622 94.0903 11.2622Z" fill="white"/>
<path d="M85.5783 38.8078C84.3702 39.0449 83.1057 39.0675 81.9428 38.9658C81.5138 38.932 81.0848 38.8304 80.667 38.6836C80.7235 40.1965 80.7348 43.7416 79.6622 45.2206C79.6622 45.2206 80.0461 46.9706 83.1961 47.0158C86.346 47.0722 86.696 44.69 86.696 44.69C86.696 44.69 85.646 41.032 85.5783 38.8078Z" fill="#F88667"/>
<path d="M79.6735 45.2771C79.6848 45.3109 79.6961 45.3448 79.7187 45.4013C79.7187 45.4013 79.7187 45.4125 79.73 45.4125C79.7526 45.469 79.7864 45.5254 79.8316 45.5932C79.8316 45.5932 79.8316 45.5932 79.8316 45.6045C79.8767 45.6722 79.9332 45.7512 79.9897 45.8303C80.0009 45.8416 80.0122 45.8529 80.0122 45.8642C80.1477 46.0222 80.3397 46.2028 80.588 46.3609C80.5993 46.3722 80.6106 46.3835 80.6332 46.3835C80.7574 46.4625 80.9041 46.5416 81.0622 46.6093C81.0848 46.6206 81.1074 46.6319 81.1299 46.6319C81.2993 46.6996 81.48 46.7674 81.6832 46.8238C81.7848 46.0222 82.0896 45.2432 82.609 44.5884C83.5347 43.4255 84.7654 42.7481 86.1541 42.5336C85.8831 41.3481 85.6121 39.9142 85.5783 38.8078C84.3702 39.0449 83.1057 39.0675 81.9428 38.9658C81.5138 38.932 81.0848 38.8304 80.667 38.6836C80.7235 40.1965 80.7348 43.7416 79.6622 45.2206C79.6622 45.2206 79.6622 45.2432 79.6735 45.2545C79.6735 45.2658 79.6735 45.2658 79.6735 45.2771Z" fill="#E45940"/>
<path d="M81.2091 30.306C81.2091 30.306 86.3687 28.7818 87.1928 30.035C88.017 31.2882 87.8703 33.3092 88.209 34.1898C88.5477 35.0817 89.8348 36.0188 89.9703 36.3688C90.1057 36.7301 89.1122 37.4075 88.9767 37.6785C88.8412 37.9607 88.3219 40.8736 87.4187 41.5284C86.5267 42.1719 81.7171 40.4558 80.5203 38.1865C79.3349 35.9285 79.8317 31.0511 81.2091 30.306Z" fill="#F88667"/>
<path d="M83.5687 31.2094C83.5687 31.2094 83.7267 32.4739 83.0267 33.8739C82.7219 34.4948 84.2574 36.1319 83.8284 36.8771C83.5461 37.3738 83.1284 37.2496 82.7445 36.2674C82.609 35.9287 82.2477 35.7029 81.909 35.5561C80.6445 35.0142 80.351 36.9335 81.48 37.5093C82.2703 37.9045 81.7961 39.9141 81.7961 39.9141C80.9494 40.569 78.1268 39.7786 78.4429 37.7238C78.6349 36.4142 78.7252 35.9174 78.2736 35.6013C77.4494 35.0255 76.3656 33.4223 77.7317 32.0674C79.6171 30.1933 77.901 29.6062 80.0687 29.0643C82.2477 28.5223 84.0429 29.8546 83.5687 31.2094Z" fill="#110239"/>
<path d="M79.7075 30.1144C79.8317 29.6402 80.6898 29.0305 81.1075 28.7144C81.7623 28.2289 82.5188 27.9128 83.3317 27.7095C84.1333 27.5063 85.0026 27.4725 85.8155 27.6305C86.5268 27.766 87.1139 28.0821 87.8364 28.1612C88.5026 28.2402 89.1687 28.2063 89.6316 27.8111C89.7783 28.2515 89.7784 29.1434 89.7219 29.4482C89.609 30.0918 89.18 30.6676 88.7961 31.2434C87.7461 32.8014 84.901 33.6708 82.8913 32.8466C81.9204 32.4514 81.051 32.1014 80.5769 31.2547C80.3059 30.7579 80.1027 30.5208 79.7075 30.1144Z" fill="#110239"/>
<path d="M107.267 33.4785L112.257 44.5542C112.257 44.5542 110.8 46.2025 110.304 45.83C109.818 45.4687 102.333 36.4817 101.599 36.0075C100.876 35.5446 107.267 33.4785 107.267 33.4785Z" fill="#002966"/>
<path d="M94.8928 34.8559C94.8928 34.8559 94.9154 38.0398 96.8573 38.7736C96.8573 38.7736 106.838 34.6414 108.848 34.2463C110.857 33.8511 118.162 33.7834 118.162 33.7834L110.801 20.6416C110.801 20.6416 107.267 27.698 104.049 30.0125C100.82 32.3157 94.8928 34.8559 94.8928 34.8559Z" fill="#0CAAEE"/>
<path d="M101.362 36.9449C102.152 36.6287 102.977 36.3013 103.789 35.9965C102.57 34.6191 101.926 32.6997 101.689 31.4917C100.933 31.9207 100.143 32.3385 99.3862 32.7336C99.7249 34.4497 100.459 35.8836 101.362 36.9449Z" fill="#002966"/>
<path d="M120.883 24.0175C122.96 29.0303 122.226 34.0997 119.246 35.3416C116.265 36.5835 112.155 33.5125 110.078 28.4997C108.001 23.4869 108.734 18.4176 111.715 17.1757C114.696 15.9337 118.805 19.0047 120.883 24.0175Z" fill="#01C7E2"/>
<path d="M120.476 24.1869C122.249 28.4546 121.617 32.7674 119.076 33.8174C116.536 34.8674 113.047 32.2707 111.275 28.003C109.502 23.7353 110.135 19.4224 112.675 18.3724C115.215 17.3112 118.704 19.9192 120.476 24.1869Z" fill="#002966"/>
<path d="M106.612 41.4496C106.375 41.3029 106.443 40.4109 106.488 40.1851C106.567 39.8238 106.815 39.3496 106.567 38.9996C106.126 38.39 105.494 40.0384 105.415 40.2754C105.257 40.7383 105.201 41.0432 105.302 41.3706C105.381 41.6416 105.878 42.4996 106.262 42.8157C106.217 42.9851 106.16 43.1544 106.104 43.3351C106.578 43.5496 106.849 43.6738 107.312 43.9448C107.797 44.227 107.764 44.5657 108.215 44.8706L108.667 43.8318C108.464 43.606 107.007 41.698 106.612 41.4496Z" fill="#F88667"/>
<path d="M109.807 37.8255C109.378 37.3626 108.701 37.5432 108.181 37.9158C107.797 38.198 106.702 39.0787 106.996 39.7222C107.244 40.2529 108.656 39.0674 108.656 39.0674C108.136 39.519 107.165 39.869 107.414 40.3206C107.685 40.8174 108.915 40.1061 109.186 39.9141C108.904 39.9819 107.527 40.8174 108.08 41.2577C108.452 41.5512 109.468 40.9303 109.773 40.7157C109.367 40.8399 108.814 41.2012 108.927 41.7658C109.107 42.0706 109.717 41.8674 110.056 41.7319C110.575 41.5174 111.06 41.4383 111.094 40.8061C111.106 40.6819 111.117 40.5803 111.117 40.4561C111.094 39.9932 110.88 39.4625 110.665 39.0561C110.417 38.6158 110.135 38.1868 109.807 37.8255Z" fill="#F88667"/>
<path d="M57.2626 41.5062C57.0142 41.1337 56.8335 40.7046 56.6868 40.2756C56.5626 39.903 56.4722 39.5305 56.3368 39.1692C56.2126 38.8192 56.0658 38.4579 56.0884 38.0853C56.0997 37.8482 56.1561 37.6563 56.2239 37.4192C56.3029 37.1369 56.4045 36.866 56.4609 36.5724C56.5174 36.3128 56.4948 36.0757 56.54 35.816C56.6303 35.3418 56.7432 34.845 56.9803 34.416C57.1722 34.0886 57.3754 33.8176 57.6238 33.5354C57.7593 33.3886 57.8497 33.2644 58.0077 33.1289C58.1545 33.0047 58.29 32.8805 58.3577 32.6999C58.448 32.4515 58.3125 32.2144 58.0642 32.1467C57.6238 32.0338 56.9238 32.237 56.6529 32.6096C56.2803 33.1289 56.0996 33.7612 55.6819 34.2579C54.4061 35.7821 53.1981 33.987 51.7078 33.3434C51.2788 33.1628 50.6352 32.6886 50.2626 32.4176C49.9917 32.2144 48.8514 31.1306 48.3094 31.4128C47.9143 31.6273 48.6933 32.5418 49.0659 32.7563C49.2127 32.8467 50.4997 33.8854 50.6578 33.9305C50.2852 33.8628 49.303 33.2192 48.5127 32.5983C47.9482 32.158 47.3949 31.7176 47.0901 31.966C46.1417 32.7451 49.8675 34.5289 50.161 34.687C49.8449 34.7096 46.932 32.6434 46.6498 33.4112C46.503 33.8289 47.1014 34.2466 47.5982 34.5176C48.2191 34.8563 49.2578 35.0934 49.4949 35.274C49.0546 35.4208 47.124 34.1112 47.124 34.9128C47.124 35.4434 48.3207 35.8273 48.7723 35.9741C49.2352 36.1208 50.6013 37.0466 51.0417 37.2498C52.4868 37.9385 53.0852 37.8595 53.6497 38.7176C54.011 39.2708 54.6545 42.1836 55.1852 43.2901L57.2626 41.5062Z" fill="#F88667"/>
<path d="M105.81 42.9399C104.523 46.6883 101.768 53.3156 100.865 52.8527C99.1604 51.9834 95.4911 48.9802 92.7476 47.1512C90.625 45.7286 89.5637 45.3109 89.5637 45.3109L91.4718 54.3543C91.4718 54.3543 100.515 61.2188 102.412 60.1688C103.902 59.3446 107.572 48.9012 108.859 44.5657C108.859 44.577 105.833 42.9625 105.81 42.9399Z" fill="#00A5EC"/>
<path d="M96.846 55.8444C95.8299 54.5235 91.9348 50.7074 90.8848 49.9058L91.1896 54.196C91.1896 54.196 100.301 61.0492 102.322 60.1911C100.594 59.0734 98.0879 57.4476 96.846 55.8444Z" fill="#008BDC"/>
<path d="M74.2205 45.7848C74.2205 45.7848 63.0996 50.2783 61.8916 49.9622C60.6835 49.6461 56.6529 38.1865 56.6529 38.1865L53.2885 39.5526C53.2885 39.5526 56.89 56.0928 59.2045 56.8605C61.519 57.6282 75.3269 53.6428 75.3269 53.6428C75.3269 53.6428 75.5301 49.6348 74.2205 45.7848Z" fill="#00A5EC"/>
<path d="M64.7255 55.833C63.7432 56.183 62.7497 56.533 61.7449 56.8266C66.4642 56.2056 75.3044 53.6541 75.3044 53.6541C75.3044 53.6541 75.3947 51.8137 75.0673 49.4541C72.3238 52.4121 68.4286 54.5008 64.7255 55.833Z" fill="#008BDC"/>
<path d="M115.204 27.2354C114.696 25.6661 113.16 24.7629 111.783 25.2032C111.309 25.3613 110.925 25.6548 110.631 26.0387C110.789 26.6822 111.004 27.3371 111.275 27.9919C111.738 29.1209 112.336 30.1257 112.991 30.9838C113.206 30.9725 113.42 30.9499 113.623 30.8822C115.012 30.4419 115.712 28.8048 115.204 27.2354Z" fill="#F54291"/>
<path d="M74.2317 59.3105C73.8366 63.1718 73.5317 71.2782 73.3059 72.4185H91.5509C91.8783 66.3556 91.7653 57.5832 91.4605 54.3542C90.9412 48.7317 89.5525 45.3107 89.5525 45.3107C89.5525 45.3107 88.1864 44.8817 86.5719 44.2607C86.5719 44.2607 83.2187 46.3155 80.0913 44.2833C80.0913 44.2833 74.4462 45.6156 73.7688 45.943C73.2043 46.2139 74.6494 55.1896 74.2317 59.3105Z" fill="#00A5EC"/>
<path d="M80.0001 63.5001C79.9775 61.6937 78.9708 60.9703 78.2934 59.2993C78.1353 58.9155 77.743 58.5655 77.6866 58.1477C77.5285 56.9397 77.2688 56.1381 76.9188 55.4494C76.5124 54.8284 76.0946 54.2187 75.6995 53.5978C75.4737 53.2929 75.2366 52.9768 74.9769 52.593C74.6382 52.0962 74.1301 51.193 73.8592 50.6172C74.0737 53.451 74.4575 57.2332 74.243 59.2993C73.8479 63.1606 73.5431 71.2669 73.3173 72.4072H91.5001C90.4049 71.0072 82.5001 68.5001 81.5001 66.5001C81.0001 65.5001 80.0114 64.392 80.0001 63.5001Z" fill="#0088D7"/>
</svg>
