<svg width="160" height="96" viewBox="0 0 160 96" fill="none" xmlns="http://www.w3.org/2000/svg">
<path d="M64.7586 51.1924L64.3875 89.7224C64.365 91.7243 63.8027 92.8826 60.9461 93.2538C57.3922 93.7149 56.3126 93.0851 55.784 92.1066C54.7943 90.2735 45.0887 53.453 43.4918 50.945C41.8835 48.4371 64.7586 51.1924 64.7586 51.1924Z" fill="#002966"/>
<path d="M64.68 59.4922L64.7587 51.1924C64.7587 51.1924 41.8837 48.4371 43.4806 50.945C43.863 51.5411 45.3475 56.287 46.4722 59.9533L64.68 59.4922Z" fill="#01C7E2"/>
<path d="M28.7367 37.9215C26.7123 37.9103 24.9354 39.2823 24.4856 41.2617C24.2156 42.4201 24.0132 43.9046 24.0019 45.7377C23.9795 47.9308 24.1482 49.3591 24.688 50.5624C25.3403 52.0244 26.8248 52.9242 28.4218 52.9804C36.238 53.2615 64.4101 54.3637 70.2806 55.747C77.1184 57.3552 100.016 67.5219 100.016 67.5219L95.6524 16.0137C95.6524 16.0137 74.6217 33.0631 61.2611 35.7173C50.8695 37.7866 35.1921 37.9553 28.7367 37.9215Z" fill="#0CAAEE"/>
<path d="M43.0644 53.5991C45.9772 53.7341 49.0137 53.8915 51.9828 54.0602C50.1159 48.0209 50.8469 41.1269 51.8028 37.0107C48.8226 37.2919 45.786 37.4831 42.862 37.618C41.4787 43.4999 41.7261 49.0106 43.0644 53.5991Z" fill="#002966"/>
<path d="M122.351 40.0585C122.497 58.6824 113.635 73.8425 102.546 73.9325C91.4574 74.0224 82.3592 58.9973 82.213 40.3734C82.0668 21.7495 90.9289 6.5894 102.018 6.49943C113.107 6.40945 122.205 21.4346 122.351 40.0585Z" fill="#01C7E2"/>
<path d="M120.855 40.0699C120.979 55.9048 113.433 68.8156 104.008 68.8831C94.584 68.9618 86.8353 56.1747 86.7116 40.3399C86.5879 24.505 94.1342 11.5942 103.559 11.5267C112.994 11.448 120.732 24.2238 120.855 40.0699Z" fill="#002966"/>
<path d="M100.173 42.9825C100.578 37.3368 96.8894 32.4784 91.9185 32.1185C90.2203 31.9948 88.6121 32.4559 87.1951 33.2769C86.8689 35.5374 86.689 37.8879 86.7115 40.3284C86.7452 44.512 87.3188 48.482 88.3085 52.0583C88.9945 52.3057 89.703 52.4969 90.4565 52.5531C95.4161 52.913 99.7685 48.6169 100.173 42.9825Z" fill="#F54291"/>
<path d="M70.3706 22.3792C70.3032 21.7831 70.2582 21.232 70.5843 20.6585C70.2919 20.7035 69.8646 20.7485 69.8871 20.5798C69.9208 20.3548 69.9658 20.0174 69.7971 20.0512C69.6396 20.0849 69.5047 20.1749 69.3585 20.2649C69.0548 20.4673 68.7174 20.4898 68.3576 20.5123C68.2339 20.9059 67.9077 21.5132 68.1214 21.9406C68.2338 22.1542 68.8187 22.053 69.0773 22.1542C69.5272 22.3117 70.0108 22.3567 70.3706 22.3792Z" fill="#F88667"/>
<path d="M62.1384 4.19377C62.1384 4.19377 59.6529 4.05882 56.3015 5.64455L57.8648 12.4598C57.8648 12.4598 59.473 11.4926 61.6773 11.6164L62.1384 4.19377Z" fill="#F54291"/>
<path d="M60.4963 7.77018C60.5076 6.6343 60.5863 5.49842 60.6088 4.36254C61.5647 4.19385 62.1383 4.19385 62.1383 4.19385L61.6772 11.6164C61.0362 10.638 60.7325 10.8629 60.6088 10.7392C60.6088 9.74954 60.4851 8.73737 60.4963 7.77018Z" fill="#DEC028"/>
<path d="M75.6902 4.54263C75.6902 4.54263 66.8056 1.05626 60.9913 2.24838L60.6089 10.7394C60.6089 10.7394 65.771 9.59223 72.9124 12.73L75.6902 4.54263Z" fill="#F54291"/>
<path d="M75.2919 4.40262L68.309 24.5146L69.0314 24.7655L76.0143 4.65346L75.2919 4.40262Z" fill="#002966"/>
<path d="M68.8299 22.4241V20.0174C68.8299 20.0174 61.6547 20.0737 58.6519 19.2077C55.6492 18.3417 51.6117 14.8104 50.0148 15.3839C48.4065 15.9575 47.3831 17.5882 49.3737 19.1515C51.3643 20.7147 56.0878 22.0643 58.1459 22.3792C59.5629 22.6041 67.694 22.4241 68.8299 22.4241Z" fill="#0CAAEE"/>
<path d="M56.8301 20.9286C54.2996 19.8715 51.9042 17.5885 49.8686 15.4517C48.3503 16.0702 47.4394 17.6447 49.3737 19.163C51.3643 20.7262 56.0878 22.0758 58.1459 22.3907C58.8431 22.4919 61.1711 22.5031 63.4766 22.4919C61.1824 22.2557 58.9219 21.7946 56.8301 20.9286Z" fill="#006BC2"/>
<path d="M56.7627 50.27C56.7627 50.27 55.3569 52.5305 55.5706 53.0704C55.773 53.6102 60.6427 56.433 61.3062 56.2081C61.9585 55.9832 62.0934 55.2072 61.2162 54.4312C60.429 53.7339 59.6642 53.5315 59.1469 52.8454C58.6858 52.2494 59.1469 50.7199 59.1469 50.7199L56.7627 50.27Z" fill="#002966"/>
<path d="M48.5753 31.0728C48.5753 31.0728 49.5537 31.8713 50.5771 31.7363C51.6005 31.6014 61.6435 32.6473 62.6669 33.4908C63.6904 34.3455 59.4842 51.3162 59.4842 51.3162L55.9978 50.7314C55.9978 50.7314 57.2462 38.3267 57.0438 38.2367C56.8301 38.1468 51.5668 38.1692 42.581 38.1692C40.3879 38.1692 37.9475 33.5582 40.7141 30.3418L48.5753 31.0728Z" fill="#4E87BF"/>
<path d="M50.1385 12.1678C49.7899 12.0216 49.4863 11.808 49.2051 11.5718C49.0701 12.6064 48.6765 14.5071 47.6306 15.4968C47.6306 15.4968 49.8124 16.3965 51.5893 16.0028C51.5893 16.0028 51.3756 13.5849 51.7468 12.3928C51.1957 12.4377 50.6559 12.3815 50.1385 12.1678Z" fill="#F88667"/>
<path d="M49.0814 15.1144C49.4188 14.046 50.4984 13.3824 51.5781 13.3712C51.6118 13.0113 51.668 12.6739 51.7468 12.404C51.1957 12.4377 50.6559 12.3815 50.1385 12.1678C49.7899 12.0216 49.4863 11.808 49.2051 11.5718C49.0701 12.6064 48.6765 14.5071 47.6306 15.4968C47.6306 15.4968 48.1592 15.7217 48.9239 15.8904C48.9352 15.643 48.9914 15.3843 49.0814 15.1144Z" fill="#E45940"/>
<path d="M49.52 6.28597C49.52 6.28597 52.0954 5.47623 52.9051 5.98232C53.7149 6.4884 54.3559 8.08538 54.2097 9.01883C54.0635 9.95228 55.1431 11.0319 55.1656 11.3693C55.1881 11.6392 54.3559 11.8304 54.3222 11.9429C54.2997 12.0441 54.2434 13.7535 53.1188 14.0347C51.5331 14.4396 49.4075 13.1687 48.6877 12.2015C47.9567 11.2569 47.102 6.87078 49.52 6.28597Z" fill="#F88667"/>
<path d="M54.3109 6.39833C54.176 6.26338 53.8273 6.03845 53.7374 5.86976C53.6699 5.72355 53.6361 5.55486 53.5462 5.4199C53.265 5.00379 53.1975 4.70014 52.0167 4.32901C50.9933 4.01411 49.6887 4.37399 48.8789 5.02628C48.5753 5.26245 48.3166 5.55486 48.1367 5.89225C48.0805 5.99347 47.9005 6.26338 47.9455 6.37584C48.0017 6.5108 48.3841 6.60077 48.4966 6.66825C48.7102 6.79196 48.8902 6.98314 49.0701 7.14059C50.2398 8.09653 52.0729 9.1087 53.3662 7.79288C53.5349 7.62419 53.7036 7.433 53.8498 7.23056C54.086 7.75914 54.2659 8.3552 54.2097 8.94001C54.2097 8.94001 54.6258 8.62511 54.7383 8.11902C54.9182 7.25306 54.6371 6.72448 54.3109 6.39833Z" fill="#110239"/>
<path d="M48.8677 6.3196C48.5528 6.15091 47.968 6.20714 47.6531 6.27462C46.9783 6.42082 46.6184 6.91566 46.4947 7.56795C46.4272 7.96157 46.371 8.36644 46.371 8.77131C46.3822 9.47982 46.416 9.92968 46.6746 10.5932C46.9108 11.223 47.2482 11.8416 47.7543 12.3027C48.2041 12.7188 49.1038 13.1911 49.5537 13.0112C49.7224 12.9437 49.9811 11.6954 49.9248 11.3805C49.8798 11.0656 49.7224 11.0656 49.4862 10.9306C49.0701 10.6944 48.6203 10.2446 48.9127 9.73849C49.34 9.02997 50.1385 9.35612 50.4197 10.3345C50.4197 10.3345 50.7345 10.8856 50.9032 10.7956C51.0832 10.7169 51.8704 7.93908 48.8677 6.3196Z" fill="#110239"/>
<path d="M49.1937 9.85089C49.1937 9.85089 49.6323 9.67095 49.9585 10.0533C50.2621 10.4132 50.1159 10.9868 49.8123 10.7731C49.5086 10.5594 49.6323 10.3682 49.5761 10.1883C49.5311 10.0083 49.3174 9.86214 49.1937 9.85089Z" fill="#E45940"/>
<path d="M39.4882 30.1395C39.4882 30.1395 43.1207 32.9623 50.6558 31.7027C50.6558 31.7027 50.6333 29.5434 51.2631 27.4291C51.8929 25.3148 52.8376 21.1874 52.8713 19.0168C52.905 16.5539 51.5555 15.4517 51.5555 15.4517C51.5555 15.4517 50.1384 16.7788 48.0354 15.0469C48.0354 15.0469 44.0429 15.9916 42.176 20.5351C40.2979 25.0674 39.4882 30.1395 39.4882 30.1395Z" fill="#0CAAEE"/>
<path d="M48.5528 18.5779C46.6072 20.681 48.4853 25.8543 50.9483 28.7334C51.027 28.306 51.1282 27.8674 51.2632 27.4176C51.6006 26.3042 52.0167 24.6285 52.3428 22.9865C51.6905 22.5816 51.1282 21.9743 50.7683 21.1084C50.0148 19.2865 49.52 18.0381 48.5528 18.5779Z" fill="#006BC2"/>
<path d="M64.3087 33.0298C64.5899 33.2435 64.8711 33.4571 65.2197 33.5021C65.3884 33.5246 65.5458 33.5359 65.6808 33.6258C65.827 33.7158 66.0294 33.7608 66.1981 33.817C66.3668 33.862 66.5693 33.907 66.693 34.0532C66.8392 34.2331 66.558 34.2781 66.3556 34.2894C66.1419 34.3006 65.5796 33.9295 65.4109 34.0869C65.2422 34.2444 65.9507 34.638 66.0969 34.7167C66.4343 34.8967 66.6817 34.7505 67.0304 34.7617C67.2328 34.7617 67.3228 34.8292 67.1878 35.0204C67.0866 35.1553 66.8729 35.1666 66.7155 35.1778C66.3893 35.2003 66.0182 35.1553 65.7145 35.0091C65.9395 35.1441 66.3668 35.2341 66.6367 35.2566C66.8167 35.2678 67.6039 35.2003 67.6039 35.4815C67.6152 36.0551 65.872 35.6839 65.6246 35.4927C65.8945 35.6614 66.2206 35.7289 66.5355 35.8076C66.7155 35.8526 67.1653 35.9313 66.9179 36.1675C66.558 36.5161 65.7033 35.9426 65.2759 35.7402C65.5121 35.9538 65.7595 36.0438 66.0632 36.2125C66.4231 36.4037 66.1531 36.5949 65.7595 36.4712C65.5908 36.4149 65.2759 36.2462 65.2084 36.2125C64.4887 35.8189 64.23 35.4477 63.8364 34.7617C63.7014 34.5143 63.1841 34.2107 63.2403 33.9632C63.3416 33.5021 63.9826 33.2547 64.3087 33.0298Z" fill="#F88667"/>
<path d="M64.8488 32.6812L63.3868 34.6605C63.3868 34.6605 54.0523 30.6231 53.2089 29.5547C52.3654 28.4863 49.6213 24.5725 49.1939 23.5379C48.193 21.1199 46.9672 18.2409 49.1939 17.7348C50.4085 17.4649 51.1958 17.7685 51.9493 19.5567C52.9727 21.9971 55.1657 25.8546 56.0542 27.0243C56.4028 27.4741 64.8488 32.6812 64.8488 32.6812Z" fill="#0CAAEE"/>
<path d="M71.4166 20.6926C71.5515 20.9062 71.1917 21.806 70.843 22.1771C70.5731 22.4695 70.247 22.3908 69.9771 22.2333C69.6847 22.0534 69.336 21.9971 69.291 21.8284C69.2236 21.1537 69.8534 21.6598 70.1233 21.761C70.1233 21.761 69.3698 21.3898 69.381 21.0637C69.4147 20.4564 70.3369 21.1537 70.5956 21.2774C70.3369 21.2099 69.9208 20.9175 69.8758 20.805C69.6959 20.6701 69.8084 20.4901 69.8534 20.4564C70.0558 20.2652 70.843 20.8388 70.843 20.8388C70.6968 20.7376 70.1233 20.5351 70.3594 20.2652C70.5169 20.0853 70.7418 20.2315 70.888 20.2765C71.1579 20.3439 71.3716 20.5464 71.4166 20.6926Z" fill="#F88667"/>
<path d="M69.6509 20.6699C69.7409 20.6362 69.8196 20.6137 69.9096 20.5912L69.8983 20.58C69.9321 20.3551 70.8093 20.2876 71.0005 20.1864C71.5853 19.8827 71.3491 19.5116 71.0792 19.5903C70.8993 19.6465 70.4832 19.7702 70.3257 19.8377C70.157 19.9164 69.8871 19.8715 69.7184 19.9052C69.561 19.9389 69.1111 20.3326 68.9649 20.4225C68.6725 20.6362 69.3248 20.7937 69.6509 20.6699Z" fill="#F88667"/>
<path d="M134.913 27.5413C135.104 28.0698 133.361 29.1945 131.022 30.0492C128.683 30.9152 126.625 31.1851 126.434 30.6565C126.242 30.1279 127.986 29.0033 130.325 28.1486C132.664 27.2826 134.722 27.0127 134.913 27.5413Z" fill="#F54291"/>
<path d="M130.651 17.0037C130.876 17.521 129.2 18.7357 126.906 19.7253C124.612 20.715 122.576 21.1086 122.363 20.5913C122.138 20.074 123.813 18.8594 126.108 17.8697C128.402 16.8688 130.437 16.4864 130.651 17.0037Z" fill="#F54291"/>
<path d="M133.811 55.6908C133.643 56.2306 131.573 56.0619 129.2 55.3196C126.816 54.5774 125.017 53.5427 125.185 53.0141C125.354 52.4743 127.423 52.643 129.796 53.3853C132.181 54.1275 133.98 55.1509 133.811 55.6908Z" fill="#F54291"/>
<path d="M129.481 67.0948C129.268 67.6121 127.221 67.2859 124.915 66.3525C122.599 65.419 120.889 64.2494 121.103 63.7209C121.317 63.2035 123.363 63.5297 125.669 64.4631C127.974 65.4078 129.684 66.5774 129.481 67.0948Z" fill="#F54291"/>
<path d="M136.218 41.7456C136.184 42.3079 134.149 42.6566 131.652 42.5216C129.155 42.3867 127.165 41.8356 127.198 41.2733C127.232 40.711 129.268 40.3623 131.764 40.4973C134.25 40.6322 136.24 41.1833 136.218 41.7456Z" fill="#F54291"/>
</svg>
