<svg width="160" height="96" viewBox="0 0 160 96" fill="none" xmlns="http://www.w3.org/2000/svg">
<path d="M78.6687 91.2763H64.0378L65.2405 73.6436H77.466L78.6687 91.2763Z" fill="#002966"/>
<path d="M80.5816 88.4447C80.4016 88.1795 80.1081 88.0186 79.7861 88.0186H71.6894H71.0171H62.9204C62.5984 88.0186 62.3048 88.1795 62.1249 88.4447L59.9185 91.7402C59.4923 92.3747 59.9469 93.2269 60.7139 93.2269H71.0265H71.6989H82.0115C82.7786 93.2269 83.2331 92.3747 82.807 91.7402L80.5816 88.4447Z" fill="#089FE0"/>
<path d="M107.163 78.3311H35.5432C33.2704 78.3311 31.4238 76.4845 31.4238 74.2118V28.9177C31.4238 26.6449 33.2704 24.7983 35.5432 24.7983H107.163C109.436 24.7983 111.283 26.6449 111.283 28.9177V74.2118C111.283 76.4845 109.436 78.3311 107.163 78.3311Z" fill="#089FE0"/>
<path d="M107.599 28.3496H35.1077V74.2308H107.599V28.3496Z" fill="#DFF6FD"/>
<path d="M87.1616 63.7523H55.2983C54.414 63.7523 53.7046 63.0429 53.7046 62.1587V41.6362C53.7046 40.7519 54.414 40.0425 55.2983 40.0425H87.1616C88.0458 40.0425 88.7553 40.7519 88.7553 41.6362V62.1587C88.7553 63.0429 88.0458 63.7523 87.1616 63.7523Z" fill="#002966"/>
<path d="M87.1616 41.9346H55.2982V61.871H87.1616V41.9346Z" fill="#FEFEFE"/>
<path d="M69.2646 47.8382C68.7322 47.5648 68.0991 47.9514 68.0991 48.5499V55.6973C68.0991 56.2958 68.7322 56.6824 69.2646 56.409L76.2239 52.8353C76.8034 52.5377 76.8034 51.7095 76.2239 51.412L69.2646 47.8382Z" fill="#F54291"/>
<path d="M44.227 86.7818C36.8285 85.4086 28.1983 83.7858 28.1734 86.6486C28.1484 89.3534 31.4357 91.4589 34.2652 92.7988C35.8049 92.2162 37.5359 92.0997 39.1754 91.8501C42.0715 91.4007 44.9178 91.8667 47.8222 91.8584C50.8515 90.6184 52.4494 88.4379 52.4494 88.4379C52.4494 88.4379 49.9278 87.8387 44.227 86.7818Z" fill="#616161"/>
<path d="M37.9935 91.917C38.2266 92.0335 35.397 93.3734 35.6217 93.4899C36.8367 93.8727 48.7626 93.9393 49.8528 93.6563C51.7419 93.1736 46.3491 90.8267 48.2299 90.4356C51.3258 88.2468 53.0735 85.3757 51.3924 85.0178C49.5032 84.61 46.5405 85.6087 44.6264 85.8084C43.17 85.9582 42.3211 86.0581 40.9396 85.5754L36.2792 85.0594C31.5022 86.0082 30.5201 87.7309 30.4702 87.7059C30.4702 88.3883 33.9572 89.7865 37.0781 91.4426C37.4027 91.5508 37.7023 91.7089 37.9935 91.917Z" fill="#002966"/>
<path d="M36.2127 90.0859L37.7273 92.1332C37.7273 92.1332 36.0795 93.2817 35.6218 93.4898C35.1641 93.6978 31.444 93.8476 30.4703 93.0986C29.5965 92.4328 29.2969 91.5507 29.7463 91.1346C30.3122 90.6102 31.6937 90.4355 32.3761 90.3523C33.8908 90.1525 36.2127 90.0859 36.2127 90.0859Z" fill="black"/>
<path d="M35.2972 90.1609L36.1711 93.2485C36.1711 93.2485 50.8349 93.0321 52.3662 90.7768C54.3303 88.7461 55.1292 84.7515 51.1678 84.6682C50.5686 84.6599 49.6032 84.843 48.6129 85.1842C43.2284 87.0068 35.2972 90.1609 35.2972 90.1609Z" fill="#4E87BF"/>
<path opacity="0.32" d="M51.5007 89.9528C50.5852 89.9528 49.8196 89.4951 49.0706 89.0373C48.1302 88.4714 47.1065 88.0969 46.033 87.8473C45.1092 87.6309 44.1355 87.3063 43.3948 87.0566C39.1338 88.4381 35.2972 90.1609 35.2972 90.1609L35.9797 92.5826C36.3542 92.6742 36.7287 92.7657 37.1032 92.8739C37.5526 92.9155 38.002 92.9655 38.4347 93.082C38.5263 93.1069 38.6178 93.1236 38.7094 93.1402C42.9204 92.9072 51.4175 92.2581 52.541 90.6019C52.7241 90.3356 53.0902 89.8779 53.2234 89.5783C52.8988 89.7031 51.9168 89.9528 51.5007 89.9528Z" fill="#006BC2"/>
<path d="M47.9222 90.2688L46.6489 91.8833C46.6489 91.8833 48.7212 93.1483 49.1539 93.3564C49.5867 93.5644 52.5827 93.7059 53.5314 93.0235C54.3803 92.4077 54.6966 91.5837 54.2804 91.176C53.7561 90.6517 52.4412 90.4519 51.7921 90.3437C50.369 90.1024 47.9222 90.2688 47.9222 90.2688Z" fill="black"/>
<path d="M49.3952 89.8694L48.0886 93.4813C48.0886 93.4813 30.0792 92.0665 28.6145 89.5448C27.7407 88.0385 27.6075 85.6999 29.4967 84.8677C30.6534 84.3517 32.3013 84.0937 34.6315 84.8927C40.4404 86.8983 49.3952 89.8694 49.3952 89.8694Z" fill="#4E87BF"/>
<path d="M42.313 65.918H41.0396H39.7663C39.7663 65.918 39.4002 69.3884 38.7344 69.8045C38.7344 69.8045 37.9105 73.9073 41.0396 73.9073C44.8263 73.9073 43.3449 69.8045 43.3449 69.8045C42.6875 69.3884 42.313 65.918 42.313 65.918Z" fill="#ED7F61"/>
<path d="M44.3602 66.6007C44.0107 66.1929 43.5863 66.8087 43.5863 66.8087C43.5863 66.8087 44.1688 64.5118 43.5863 63.5048C43.0037 62.4978 41.1145 63.0304 41.1145 63.0304C41.1145 63.0304 39.2254 62.4978 38.6428 63.5048C38.0603 64.5118 38.6428 66.8087 38.6428 66.8087C38.6428 66.8087 38.2184 66.1929 37.8689 66.6007C37.5193 67.0084 38.4514 68.0321 38.6678 68.1569C38.6678 68.1569 40.0243 70.7035 41.1229 70.7035C42.2214 70.7035 43.5779 68.1569 43.5779 68.1569C43.7777 68.0321 44.7098 67.0084 44.3602 66.6007Z" fill="#FF9275"/>
<path d="M40.6318 63.9374C40.6318 63.9374 39.2004 64.1871 39.0423 64.961C38.9674 65.3355 39.0506 65.735 39.1172 66.1095C39.1505 66.3009 39.2919 67.3495 39.242 67.3745C39.1921 67.3995 39.0922 67.3745 39.0589 67.3412C38.8675 67.1914 38.7177 66.9584 38.5762 66.7586C38.3016 66.3592 37.9104 66.4258 37.8023 66.6754C37.8023 66.6754 37.486 62.9054 39.0589 62.7723C40.6318 62.6391 40.6318 63.9374 40.6318 63.9374Z" fill="#110239"/>
<path d="M41.5638 63.9374C41.5638 63.9374 42.9953 64.1871 43.1534 64.961C43.2283 65.3355 43.1451 65.735 43.0785 66.1095C43.0452 66.3009 42.9037 67.3495 42.9537 67.3745C43.0036 67.3995 43.1035 67.3745 43.1368 67.3412C43.3282 67.1914 43.478 66.9584 43.6194 66.7586C43.8941 66.3592 44.2852 66.4258 44.3934 66.6754C44.3934 66.6754 44.7097 62.9054 43.1368 62.7723C41.5638 62.6391 41.5638 63.9374 41.5638 63.9374Z" fill="#110239"/>
<path d="M43.6694 62.9969C43.6694 62.9969 43.7027 62.3728 42.9953 61.9899C42.2879 61.6071 40.8815 61.4323 39.7746 61.9899C38.6594 62.5475 38.3265 62.6724 38.002 62.4893C37.6774 62.3062 37.8855 62.1148 37.8855 62.1148C37.8855 62.1148 37.1531 62.1064 37.1947 63.2383C37.228 64.3701 38.6178 65.7766 40.4404 65.7766C43.1951 65.7766 44.0939 63.8375 43.6694 62.9969Z" fill="#110239"/>
<path d="M43.3531 69.8047C43.22 73.2917 41.0479 72.9339 41.0479 72.9339C41.0479 72.9339 38.8757 73.2917 38.7426 69.8047C38.7426 69.8047 35.2722 70.7618 33.5745 71.9019C33.5745 71.9019 34.2985 74.9478 34.3401 78.335L36.3208 86.0248L41.0395 85.1676L45.7583 86.0248L47.7389 78.335C47.7889 74.9562 48.5046 71.9019 48.5046 71.9019C46.8235 70.7618 43.3531 69.8047 43.3531 69.8047Z" fill="#0CAAEE"/>
<path d="M47.4062 73.9157C45.2507 75.0642 44.2021 77.7107 42.1049 79.0089C39.9328 80.3488 38.4015 77.6441 37.3445 76.2293C36.4374 75.0142 35.2806 74.0322 33.8741 73.4663C34.0739 74.673 34.3069 76.4457 34.3402 78.3265L36.3209 86.0163L41.0396 85.442L45.7584 86.0163L47.739 78.3265C47.764 76.4873 47.9887 74.7479 48.1885 73.5412C47.9221 73.6577 47.6558 73.7825 47.4062 73.9157Z" fill="#006BC2"/>
<path d="M33.5747 71.9016C33.5747 71.9016 29.6382 81.1393 29.5966 82.4126C29.5051 84.876 34.8979 85.8747 37.353 85.4253L38.3516 85.2422C38.3516 85.2339 34.6982 71.835 33.5747 71.9016Z" fill="#0CAAEE"/>
<path d="M48.5046 71.9016C48.5046 71.9016 52.4744 81.1393 52.4827 82.4126C52.4993 84.901 47.1814 85.8747 44.7263 85.4253L43.7277 85.2422C43.7277 85.2339 47.3728 71.835 48.5046 71.9016Z" fill="#0CAAEE"/>
<path d="M35.2474 75.1475C35.2391 75.5719 35.1891 76.0213 35.0809 76.504C34.6981 78.1768 34.0989 79.9328 34.7314 81.6305C35.2058 82.9205 35.9714 84.2271 36.6705 85.4587C36.9118 85.4671 37.1449 85.4587 37.3529 85.4171L38.3516 85.2341C38.3516 85.2341 36.6788 79.0922 35.2474 75.1475Z" fill="#006BC2"/>
<path d="M46.1578 85.3753C46.474 84.593 46.6654 83.7775 46.6321 82.9036C46.5739 81.1892 46.5656 79.4748 46.5905 77.7605C46.5988 77.0198 46.6238 76.3041 46.6654 75.5967C45.2756 79.5414 43.7277 85.2339 43.7277 85.2339L44.7263 85.4169C45.1424 85.5002 45.6251 85.4669 46.1578 85.3753Z" fill="#006BC2"/>
<path d="M47.223 85.3423H34.8561V86.0746H47.223V85.3423Z" fill="black"/>
<path d="M49.0456 76.7705H33.0336C33.0336 76.7705 32.168 76.7705 32.3178 77.7359C32.4676 78.7013 34.4816 85.4423 34.8894 85.4423C35.6467 85.4423 41.0396 85.4423 41.0396 85.4423C41.0396 85.4423 46.4324 85.4423 47.1897 85.4423C47.5476 85.4423 49.6115 78.7013 49.7613 77.7359C49.9111 76.7705 49.0456 76.7705 49.0456 76.7705Z" fill="#3D4142"/>
<path d="M41.3663 81.684C41.3663 81.9668 41.135 82.1981 40.8522 82.1981C40.5695 82.1981 40.3381 81.9668 40.3381 81.684C40.3381 81.4013 40.5695 81.1699 40.8522 81.1699C41.135 81.1763 41.3663 81.4013 41.3663 81.684Z" fill="white"/>
<path d="M117.437 33.0319L115.17 37.3851C113.816 39.9846 111.034 41.5365 108.113 41.2833C102.33 40.784 96.9662 37.9909 93.2413 33.5392C91.3589 31.2912 91.0353 28.1221 92.389 25.5226L94.6558 21.1694L117.437 33.0319Z" fill="#006BC2"/>
<path d="M103.011 40.2169C99.2331 38.941 95.8385 36.6443 93.2407 33.5392C91.3583 31.2912 91.0347 28.1221 92.3884 25.5226L94.6552 21.1694L100.626 24.2786L98.3592 28.6317C97.0055 31.2312 97.3291 34.4003 99.2115 36.6483C100.339 37.9964 101.617 39.1922 103.011 40.2169Z" fill="#002966"/>
<path d="M117.437 33.0318L116.528 34.7772L104.632 34.8617C102.983 34.8725 101.435 34.0666 100.498 32.7092L93.747 22.9148L94.6559 21.1694L117.437 33.0318Z" fill="#002966"/>
<path d="M126.783 28.7992L115.962 13.1022C115.026 11.7443 113.479 10.9383 111.829 10.95L92.7644 11.0849C90.6236 11.1 89.3718 13.5039 90.587 15.2665L101.408 30.9636C102.344 32.3215 103.892 33.1275 105.541 33.1158L124.606 32.9808C126.747 32.9658 127.998 30.562 126.783 28.7992V28.7992Z" fill="#006BC2"/>
<path d="M105.714 43.9646C105.373 43.7868 105.24 43.3658 105.418 43.0244L110.646 32.9852L108.008 22.1985C107.917 21.8246 108.146 21.4473 108.519 21.3558C108.893 21.2643 109.271 21.4935 109.362 21.8673L112.062 32.9089C112.102 33.0732 112.082 33.2465 112.003 33.3964L106.655 43.6682C106.477 44.0097 106.056 44.1424 105.714 43.9646Z" fill="#FFD91C"/>
<path d="M105.084 43.0299L102.729 44.5298C101.276 45.4551 101.37 47.6062 102.898 48.4018L103.694 48.8164C105.222 49.6119 107.038 48.4553 106.963 46.7344L106.842 43.9448C106.803 43.0652 105.827 42.5569 105.084 43.0299Z" fill="#F54291"/>
</svg>
