<svg width="236" height="32" viewBox="0 0 236 32" fill="none" xmlns="http://www.w3.org/2000/svg">
<path d="M79.7695 6.9395L83.9718 10.1749L83.9581 14.6035L87.3718 12.3595L90.6558 14.6736L98.0299 3.13721L79.7695 6.9395ZM85.9482 11.2485L84.7512 13.264L84.7558 9.87847L95.723 4.6086L85.9482 11.2485Z" fill="#00A5EC"/>
<path d="M3.13727 19.1215H5.02353V28.5792H3.13727V19.1215Z" fill="#00A5EC"/>
<path d="M6.92426 28.5791V19.1274H7.55632L13.4884 25.0481V19.1274H15.3808V28.5783H14.6876L8.81663 22.7179V28.5783H6.92426V28.5791Z" fill="#00A5EC"/>
<path d="M25.0717 19.1274V20.8914H21.9152V28.5783H20.022V20.8914H16.8671V19.1274H25.0717Z" fill="#00A5EC"/>
<path d="M26.4541 28.5791V19.1328L33.4121 19.1274V20.8914H28.3488V22.9069H32.145V24.6663H28.3488V26.8136H33.3984V28.5783H26.4541V28.5791Z" fill="#00A5EC"/>
<path d="M41.0191 24.4568L43.3779 28.5791H41.2084L38.939 24.6732H37.2107V28.5791H35.3176V19.1274H39.4458C41.6558 19.1274 42.7588 20.0327 42.7588 21.847C42.7588 23.214 42.1794 24.0826 41.0191 24.4568ZM37.2115 22.9069H39.8641C40.6245 22.8932 41.0183 22.548 41.0359 21.8691C41.0183 21.245 40.6321 20.9234 39.8817 20.8968H37.2115V22.9069Z" fill="#00A5EC"/>
<path d="M44.3649 28.5791V19.1274H44.9939L50.929 25.0481V19.1274H52.8222V28.5783H52.1267L46.2572 22.7179V28.5783H44.3649V28.5791Z" fill="#00A5EC"/>
<path fill-rule="evenodd" clip-rule="evenodd" d="M69.6062 17.9813C74.1383 17.3237 78.4139 15.7601 82.8268 14.2979C81.462 15.3921 71.2535 18.2533 69.6062 17.9813Z" fill="#666666"/>
<path fill-rule="evenodd" clip-rule="evenodd" d="M87.372 12.3603L83.9583 14.6036L85.9483 11.2485L87.372 12.3603Z" fill="#666666"/>
<path d="M59.9124 19.4422C60.394 19.6517 60.8475 19.9664 61.2673 20.3855L60.0078 21.6474C59.5856 21.1414 58.9971 20.8907 58.2368 20.8907C57.4811 20.8907 56.9963 21.0698 56.7864 21.4256C56.5765 21.783 56.5765 22.0878 56.7864 22.34C56.9963 22.5937 57.4811 22.7819 58.2368 22.9069C59.0391 22.9915 59.765 23.2544 60.4154 23.6971C61.0681 24.136 61.3933 24.8401 61.3933 25.807C61.3933 26.5621 61.046 27.2144 60.3513 27.76C59.6536 28.3048 58.8421 28.5784 57.9169 28.5784C57.0375 28.5784 56.304 28.4519 55.7146 28.2004C55.1261 27.9474 54.62 27.6129 54.2001 27.1915L55.4612 25.9312C55.8833 26.4372 56.5986 26.7305 57.607 26.8136C58.4505 26.8136 58.9727 26.6361 59.1826 26.2794C59.391 25.9221 59.391 25.5647 59.1826 25.2066C58.9727 24.8507 58.4505 24.629 57.607 24.5459C56.8498 24.4621 56.1566 24.2297 55.5253 23.8518C54.8933 23.4738 54.5788 22.8223 54.5788 21.8988C54.5788 21.0621 54.9368 20.3908 55.6543 19.8856C56.3734 19.3797 57.107 19.1267 57.8673 19.1267C58.7467 19.1275 59.4261 19.2326 59.9124 19.4422Z" fill="#666666"/>
<path d="M63.0864 28.579V19.1273H64.9811V22.9068H69.3918V19.1205H71.2887V28.5714L69.3918 28.5782V24.6723H64.9819V28.5782H63.0864V28.579Z" fill="#666666"/>
<path d="M72.8345 28.5791L76.62 19.1282H78.5147L82.2956 28.5722L80.2827 28.5791L79.7124 27.1313H75.4208L74.8529 28.5791H72.8345ZM77.6178 21.6481L76.1781 25.2385H79.0193L77.6178 21.6481Z" fill="#666666"/>
<path d="M85.6231 19.1273V26.8135H90.6735V28.5782H83.7285V19.1273H85.6231Z" fill="#666666"/>
<path d="M91.7324 28.5791L95.5217 19.1282H97.4148L101.195 28.5722L99.1828 28.5791L98.6141 27.1313H94.3224L93.7553 28.5791H91.7324ZM96.5194 21.6481L95.0797 25.2385H97.9209L96.5194 21.6481Z" fill="#666666"/>
<mask id="path-15-outside-1" maskUnits="userSpaceOnUse" x="105.353" y="18.1372" width="126" height="11" fill="black">
<rect fill="white" x="105.353" y="18.1372" width="126" height="11"/>
<path d="M106.353 27.3615C107.129 28.2362 108.328 28.8569 109.964 28.8569C112.504 28.8569 113.435 27.4603 113.435 26.0919C113.435 24.1169 111.685 23.6373 110.148 23.2282C108.949 22.9038 107.862 22.6216 107.862 21.6765C107.862 20.7877 108.667 20.1811 109.795 20.1811C110.825 20.1811 111.812 20.5338 112.518 21.3097L113.223 20.4492C112.433 19.6168 111.319 19.1372 109.88 19.1372C108.032 19.1372 106.649 20.1952 106.649 21.747C106.649 23.595 108.328 24.0182 109.837 24.4132C111.079 24.7518 112.221 25.0621 112.221 26.1907C112.221 26.9101 111.685 27.813 110.007 27.813C108.681 27.813 107.665 27.164 107.044 26.4728L106.353 27.3615Z"/>
<path d="M117.428 28.6876H118.599V20.3222H121.59V19.2783H114.451V20.3222H117.428V28.6876Z"/>
<path d="M123.146 25.0339C123.146 27.3474 124.429 28.8569 126.983 28.8569C129.536 28.8569 130.82 27.3615 130.82 25.0198V19.2783H129.649V25.0057C129.649 26.7267 128.718 27.813 126.983 27.813C125.248 27.813 124.317 26.7267 124.317 25.0057V19.2783H123.146V25.0339Z"/>
<path d="M133.023 28.6876H136.24C139.16 28.6876 141.064 26.6703 141.064 23.99C141.064 21.3238 139.16 19.2783 136.24 19.2783H133.023V28.6876ZM134.194 27.6437V20.3222H136.24C138.567 20.3222 139.851 21.9586 139.851 23.99C139.851 26.0073 138.525 27.6437 136.24 27.6437H134.194Z"/>
<path d="M142.901 28.6876H149.066V27.6437H144.072V24.3991H148.967V23.3552H144.072V20.3222H149.066V19.2783H142.901V28.6876Z"/>
<path d="M157.591 28.6876H158.719V19.2783H157.549V26.7126L152.132 19.2783H150.932V28.6876H152.103V21.0981L157.591 28.6876Z"/>
<path d="M163.248 28.6876H164.419V20.3222H167.409V19.2783H160.271V20.3222H163.248V28.6876Z"/>
<path d="M172.603 28.6876H173.773V24.9493H176.383C178.245 24.9493 179.332 23.6514 179.332 22.1138C179.332 20.5761 178.274 19.2783 176.383 19.2783H172.603V28.6876ZM178.118 22.1138C178.118 23.1718 177.357 23.9053 176.242 23.9053H173.773V20.3222H176.242C177.357 20.3222 178.118 21.0557 178.118 22.1138Z"/>
<path d="M186.551 28.6876H187.849L184.054 19.2783H182.601L178.82 28.6876H180.118L180.951 26.5998H185.719L186.551 28.6876ZM183.335 20.3222L185.366 25.5559H181.289L183.335 20.3222Z"/>
<path d="M194.524 28.6876H195.907L193.368 24.8505C194.651 24.7377 195.808 23.8066 195.808 22.1138C195.808 20.3786 194.581 19.2783 192.86 19.2783H189.079V28.6876H190.25V24.9493H192.126L194.524 28.6876ZM194.595 22.1138C194.595 23.1718 193.833 23.9195 192.719 23.9195H190.25V20.3222H192.719C193.833 20.3222 194.595 21.0557 194.595 22.1138Z"/>
<path d="M199.852 28.6876H201.022V20.3222H204.013V19.2783H196.875V20.3222H199.852V28.6876Z"/>
<path d="M212.228 28.6876H213.356V19.2783H212.185V26.7126L206.768 19.2783H205.569V28.6876H206.74V21.0981L212.228 28.6876Z"/>
<path d="M215.557 28.6876H221.722V27.6437H216.728V24.3991H221.623V23.3552H216.728V20.3222H221.722V19.2783H215.557V28.6876Z"/>
<path d="M229.034 28.6876H230.416L227.877 24.8505C229.161 24.7377 230.318 23.8066 230.318 22.1138C230.318 20.3786 229.09 19.2783 227.369 19.2783H223.589V28.6876H224.759V24.9493H226.636L229.034 28.6876ZM229.104 22.1138C229.104 23.1718 228.343 23.9195 227.228 23.9195H224.759V20.3222H227.228C228.343 20.3222 229.104 21.0557 229.104 22.1138Z"/>
</mask>
<path d="M106.353 27.3615C107.129 28.2362 108.328 28.8569 109.964 28.8569C112.504 28.8569 113.435 27.4603 113.435 26.0919C113.435 24.1169 111.685 23.6373 110.148 23.2282C108.949 22.9038 107.862 22.6216 107.862 21.6765C107.862 20.7877 108.667 20.1811 109.795 20.1811C110.825 20.1811 111.812 20.5338 112.518 21.3097L113.223 20.4492C112.433 19.6168 111.319 19.1372 109.88 19.1372C108.032 19.1372 106.649 20.1952 106.649 21.747C106.649 23.595 108.328 24.0182 109.837 24.4132C111.079 24.7518 112.221 25.0621 112.221 26.1907C112.221 26.9101 111.685 27.813 110.007 27.813C108.681 27.813 107.665 27.164 107.044 26.4728L106.353 27.3615Z" fill="#666666"/>
<path d="M117.428 28.6876H118.599V20.3222H121.59V19.2783H114.451V20.3222H117.428V28.6876Z" fill="#666666"/>
<path d="M123.146 25.0339C123.146 27.3474 124.429 28.8569 126.983 28.8569C129.536 28.8569 130.82 27.3615 130.82 25.0198V19.2783H129.649V25.0057C129.649 26.7267 128.718 27.813 126.983 27.813C125.248 27.813 124.317 26.7267 124.317 25.0057V19.2783H123.146V25.0339Z" fill="#666666"/>
<path d="M133.023 28.6876H136.24C139.16 28.6876 141.064 26.6703 141.064 23.99C141.064 21.3238 139.16 19.2783 136.24 19.2783H133.023V28.6876ZM134.194 27.6437V20.3222H136.24C138.567 20.3222 139.851 21.9586 139.851 23.99C139.851 26.0073 138.525 27.6437 136.24 27.6437H134.194Z" fill="#666666"/>
<path d="M142.901 28.6876H149.066V27.6437H144.072V24.3991H148.967V23.3552H144.072V20.3222H149.066V19.2783H142.901V28.6876Z" fill="#666666"/>
<path d="M157.591 28.6876H158.719V19.2783H157.549V26.7126L152.132 19.2783H150.932V28.6876H152.103V21.0981L157.591 28.6876Z" fill="#666666"/>
<path d="M163.248 28.6876H164.419V20.3222H167.409V19.2783H160.271V20.3222H163.248V28.6876Z" fill="#666666"/>
<path d="M172.603 28.6876H173.773V24.9493H176.383C178.245 24.9493 179.332 23.6514 179.332 22.1138C179.332 20.5761 178.274 19.2783 176.383 19.2783H172.603V28.6876ZM178.118 22.1138C178.118 23.1718 177.357 23.9053 176.242 23.9053H173.773V20.3222H176.242C177.357 20.3222 178.118 21.0557 178.118 22.1138Z" fill="#666666"/>
<path d="M186.551 28.6876H187.849L184.054 19.2783H182.601L178.82 28.6876H180.118L180.951 26.5998H185.719L186.551 28.6876ZM183.335 20.3222L185.366 25.5559H181.289L183.335 20.3222Z" fill="#666666"/>
<path d="M194.524 28.6876H195.907L193.368 24.8505C194.651 24.7377 195.808 23.8066 195.808 22.1138C195.808 20.3786 194.581 19.2783 192.86 19.2783H189.079V28.6876H190.25V24.9493H192.126L194.524 28.6876ZM194.595 22.1138C194.595 23.1718 193.833 23.9195 192.719 23.9195H190.25V20.3222H192.719C193.833 20.3222 194.595 21.0557 194.595 22.1138Z" fill="#666666"/>
<path d="M199.852 28.6876H201.022V20.3222H204.013V19.2783H196.875V20.3222H199.852V28.6876Z" fill="#666666"/>
<path d="M212.228 28.6876H213.356V19.2783H212.185V26.7126L206.768 19.2783H205.569V28.6876H206.74V21.0981L212.228 28.6876Z" fill="#666666"/>
<path d="M215.557 28.6876H221.722V27.6437H216.728V24.3991H221.623V23.3552H216.728V20.3222H221.722V19.2783H215.557V28.6876Z" fill="#666666"/>
<path d="M229.034 28.6876H230.416L227.877 24.8505C229.161 24.7377 230.318 23.8066 230.318 22.1138C230.318 20.3786 229.09 19.2783 227.369 19.2783H223.589V28.6876H224.759V24.9493H226.636L229.034 28.6876ZM229.104 22.1138C229.104 23.1718 228.343 23.9195 227.228 23.9195H224.759V20.3222H227.228C228.343 20.3222 229.104 21.0557 229.104 22.1138Z" fill="#666666"/>
<path d="M106.353 27.3615C107.129 28.2362 108.328 28.8569 109.964 28.8569C112.504 28.8569 113.435 27.4603 113.435 26.0919C113.435 24.1169 111.685 23.6373 110.148 23.2282C108.949 22.9038 107.862 22.6216 107.862 21.6765C107.862 20.7877 108.667 20.1811 109.795 20.1811C110.825 20.1811 111.812 20.5338 112.518 21.3097L113.223 20.4492C112.433 19.6168 111.319 19.1372 109.88 19.1372C108.032 19.1372 106.649 20.1952 106.649 21.747C106.649 23.595 108.328 24.0182 109.837 24.4132C111.079 24.7518 112.221 25.0621 112.221 26.1907C112.221 26.9101 111.685 27.813 110.007 27.813C108.681 27.813 107.665 27.164 107.044 26.4728L106.353 27.3615Z" stroke="#666666" stroke-width="0.0658824" mask="url(#path-15-outside-1)"/>
<path d="M117.428 28.6876H118.599V20.3222H121.59V19.2783H114.451V20.3222H117.428V28.6876Z" stroke="#666666" stroke-width="0.0658824" mask="url(#path-15-outside-1)"/>
<path d="M123.146 25.0339C123.146 27.3474 124.429 28.8569 126.983 28.8569C129.536 28.8569 130.82 27.3615 130.82 25.0198V19.2783H129.649V25.0057C129.649 26.7267 128.718 27.813 126.983 27.813C125.248 27.813 124.317 26.7267 124.317 25.0057V19.2783H123.146V25.0339Z" stroke="#666666" stroke-width="0.0658824" mask="url(#path-15-outside-1)"/>
<path d="M133.023 28.6876H136.24C139.16 28.6876 141.064 26.6703 141.064 23.99C141.064 21.3238 139.16 19.2783 136.24 19.2783H133.023V28.6876ZM134.194 27.6437V20.3222H136.24C138.567 20.3222 139.851 21.9586 139.851 23.99C139.851 26.0073 138.525 27.6437 136.24 27.6437H134.194Z" stroke="#666666" stroke-width="0.0658824" mask="url(#path-15-outside-1)"/>
<path d="M142.901 28.6876H149.066V27.6437H144.072V24.3991H148.967V23.3552H144.072V20.3222H149.066V19.2783H142.901V28.6876Z" stroke="#666666" stroke-width="0.0658824" mask="url(#path-15-outside-1)"/>
<path d="M157.591 28.6876H158.719V19.2783H157.549V26.7126L152.132 19.2783H150.932V28.6876H152.103V21.0981L157.591 28.6876Z" stroke="#666666" stroke-width="0.0658824" mask="url(#path-15-outside-1)"/>
<path d="M163.248 28.6876H164.419V20.3222H167.409V19.2783H160.271V20.3222H163.248V28.6876Z" stroke="#666666" stroke-width="0.0658824" mask="url(#path-15-outside-1)"/>
<path d="M172.603 28.6876H173.773V24.9493H176.383C178.245 24.9493 179.332 23.6514 179.332 22.1138C179.332 20.5761 178.274 19.2783 176.383 19.2783H172.603V28.6876ZM178.118 22.1138C178.118 23.1718 177.357 23.9053 176.242 23.9053H173.773V20.3222H176.242C177.357 20.3222 178.118 21.0557 178.118 22.1138Z" stroke="#666666" stroke-width="0.0658824" mask="url(#path-15-outside-1)"/>
<path d="M186.551 28.6876H187.849L184.054 19.2783H182.601L178.82 28.6876H180.118L180.951 26.5998H185.719L186.551 28.6876ZM183.335 20.3222L185.366 25.5559H181.289L183.335 20.3222Z" stroke="#666666" stroke-width="0.0658824" mask="url(#path-15-outside-1)"/>
<path d="M194.524 28.6876H195.907L193.368 24.8505C194.651 24.7377 195.808 23.8066 195.808 22.1138C195.808 20.3786 194.581 19.2783 192.86 19.2783H189.079V28.6876H190.25V24.9493H192.126L194.524 28.6876ZM194.595 22.1138C194.595 23.1718 193.833 23.9195 192.719 23.9195H190.25V20.3222H192.719C193.833 20.3222 194.595 21.0557 194.595 22.1138Z" stroke="#666666" stroke-width="0.0658824" mask="url(#path-15-outside-1)"/>
<path d="M199.852 28.6876H201.022V20.3222H204.013V19.2783H196.875V20.3222H199.852V28.6876Z" stroke="#666666" stroke-width="0.0658824" mask="url(#path-15-outside-1)"/>
<path d="M212.228 28.6876H213.356V19.2783H212.185V26.7126L206.768 19.2783H205.569V28.6876H206.74V21.0981L212.228 28.6876Z" stroke="#666666" stroke-width="0.0658824" mask="url(#path-15-outside-1)"/>
<path d="M215.557 28.6876H221.722V27.6437H216.728V24.3991H221.623V23.3552H216.728V20.3222H221.722V19.2783H215.557V28.6876Z" stroke="#666666" stroke-width="0.0658824" mask="url(#path-15-outside-1)"/>
<path d="M229.034 28.6876H230.416L227.877 24.8505C229.161 24.7377 230.318 23.8066 230.318 22.1138C230.318 20.3786 229.09 19.2783 227.369 19.2783H223.589V28.6876H224.759V24.9493H226.636L229.034 28.6876ZM229.104 22.1138C229.104 23.1718 228.343 23.9195 227.228 23.9195H224.759V20.3222H227.228C228.343 20.3222 229.104 21.0557 229.104 22.1138Z" stroke="#666666" stroke-width="0.0658824" mask="url(#path-15-outside-1)"/>
</svg>
