<svg width="208" height="96" viewBox="0 0 208 96" fill="none" xmlns="http://www.w3.org/2000/svg">
<path d="M89.9667 31.9813C89.9667 31.9813 87.6278 22.9785 77.4568 25.9028C77.4568 25.9028 82.7006 27.2978 80.8462 32.4491C80.8462 32.4491 78.6249 35.606 81.0787 37.9449C81.0815 37.9449 87.2776 38.5303 89.9667 31.9813Z" fill="#006BC2"/>
<path d="M80.846 32.4493C80.846 32.4493 78.6247 35.6062 81.0785 37.9451C81.0785 37.9451 82.8796 38.1132 84.9637 37.242C86.0225 24.5753 77.4539 25.903 77.4539 25.903C77.4539 25.903 82.7004 27.298 80.846 32.4493Z" fill="#002966"/>
<path d="M82.1766 25.1104H81.1514C83.0169 25.7882 83.5519 27.9535 83.5519 27.9535C83.692 25.6258 82.1766 25.1104 82.1766 25.1104Z" fill="#A7DEC1"/>
<path d="M93.2942 77.2561L93.3054 77.1917L94.2158 71.3542L84.0841 67.0432L82.0925 79.6483H91.1765C92.8264 79.6511 93.2326 77.6259 93.2942 77.2561Z" fill="#006BC2"/>
<path d="M83.1513 72.948C86.2297 74.8696 89.6723 76.2533 93.325 77.0489L94.213 71.3542L84.0841 67.0432L83.1513 72.948Z" fill="#002966"/>
<path d="M116.087 77.2561L116.098 77.1917L117.723 67.0432H106.88L104.888 79.6483H113.972C115.622 79.6511 116.028 77.6259 116.087 77.2561Z" fill="#006BC2"/>
<path d="M105.221 77.5363C109.291 77.004 113.16 75.7575 116.63 73.8724L117.723 67.046H106.88L105.221 77.5363Z" fill="#002966"/>
<path d="M81.056 58.6312C81.056 60.1214 79.8487 61.3259 78.3613 61.3259H71.3025C69.8123 61.3259 68.6078 60.1186 68.6078 58.6312V51.0401C68.6078 49.5527 69.8151 48.3455 71.3025 48.3455H78.3613C79.8515 48.3455 81.056 49.5527 81.056 51.0401V58.6312V58.6312Z" fill="#0CAAEE"/>
<path d="M68.6051 56.0404V58.6287C68.6051 60.1189 69.8124 61.3233 71.2998 61.3233H78.3586C79.8488 61.3233 81.0533 60.1161 81.0533 58.6287V56.0404H68.6051Z" fill="#006BC2"/>
<path d="M117.706 77.2563L117.717 77.1918L119.342 67.0433H108.499L106.507 79.6484H115.591C117.238 79.6512 117.644 77.626 117.706 77.2563Z" fill="#0CAAEE"/>
<path d="M94.9107 77.2561L94.9219 77.1917L95.8322 71.3542L85.7033 67.0432L83.7117 79.6483H92.7958C94.4457 79.6511 94.8518 77.6259 94.9107 77.2561Z" fill="#0CAAEE"/>
<path d="M84.7706 72.948C87.849 74.8696 91.2916 76.2533 94.9443 77.0489L95.8322 71.3542L85.7033 67.0432L84.7706 72.948Z" fill="#006BC2"/>
<path d="M106.841 77.5363C110.911 77.004 114.779 75.7575 118.25 73.8724L119.342 67.046H108.499L106.841 77.5363Z" fill="#006BC2"/>
<path d="M129.765 51.5446C129.765 64.5727 117.468 75.1357 102.297 75.1357C87.1262 75.1357 74.8292 64.5727 74.8292 51.5446C74.8292 38.5166 87.1262 27.9535 102.297 27.9535C117.468 27.9535 129.765 38.5166 129.765 51.5446Z" fill="#0CAAEE"/>
<path d="M109.659 32.6707C109.569 32.6707 109.477 32.6595 109.384 32.6343C107.098 32.032 104.715 31.7295 102.3 31.7295C100.292 31.7295 98.3001 31.9424 96.3729 32.3569C95.7903 32.483 95.2161 32.1133 95.09 31.5306C94.964 30.948 95.3337 30.3737 95.9164 30.2477C97.992 29.7995 100.14 29.5698 102.3 29.5698C104.9 29.5698 107.468 29.8976 109.933 30.5474C110.51 30.6987 110.855 31.2897 110.701 31.864C110.572 32.3485 110.135 32.6707 109.659 32.6707Z" fill="#006BC2"/>
<path d="M96.3699 32.3568C98.2971 31.9394 100.289 31.7293 102.297 31.7293C104.712 31.7293 107.095 32.0347 109.381 32.6341C109.474 32.6593 109.566 32.6705 109.656 32.6705C110.048 32.6705 110.409 32.452 110.597 32.1103C110.46 31.861 110.227 31.6649 109.93 31.5865C107.465 30.9394 104.899 30.6089 102.297 30.6089C100.137 30.6089 97.989 30.8358 95.9133 31.2868C95.5968 31.3568 95.3475 31.5585 95.2018 31.8218C95.4259 32.2279 95.8937 32.4576 96.3699 32.3568Z" fill="#002966"/>
<path d="M88.7957 30.9984L88.2999 34.5922C88.2999 34.5922 93.4343 33.2393 94.6864 28.8723C92.6108 29.3849 90.6388 30.102 88.7957 30.9984Z" fill="#006BC2"/>
<path d="M125.633 43.553C126.18 45.3289 126.468 47.1916 126.468 49.1104C126.468 61.3149 114.731 71.245 100.303 71.245C94.7145 71.245 89.5296 69.7548 85.2719 67.2169C89.7565 70.7071 95.7369 72.8416 102.297 72.8416C116.18 72.8416 127.474 63.2869 127.474 51.5418C127.474 48.7183 126.818 46.0208 125.633 43.553Z" fill="#DFF6FD"/>
<path d="M134.384 48.1693C133.547 48.1693 132.608 47.7827 132.012 46.6202C131.829 46.3205 130.684 44.3765 130.611 42.3121C127.955 42.2197 125.608 45.018 125.583 45.046C125.297 45.3877 124.787 45.4354 124.446 45.1496C124.101 44.8639 124.054 44.3569 124.339 44.0124C124.457 43.8695 127.275 40.5222 130.759 40.6986C130.776 40.6986 130.793 40.7014 130.81 40.7014C131.124 39.679 131.793 38.8695 132.799 38.2953L132.824 38.2813C132.936 38.2224 135.583 36.8555 138.384 37.9647C140.429 38.7743 141.972 40.6538 142.972 43.5502C143.118 43.9732 142.894 44.4326 142.471 44.5782C142.048 44.7239 141.589 44.4998 141.443 44.0768C140.605 41.6538 139.381 40.1048 137.804 39.4717C135.779 38.6622 133.748 39.6258 133.586 39.707C132.998 40.0488 132.608 40.4886 132.401 41.046C133.664 41.539 134.813 42.539 135.827 44.0376C136.012 44.2645 136.698 45.1833 136.591 46.2505C136.53 46.8667 136.21 47.413 135.673 47.8275L135.605 47.8779L135.53 47.9144C135.216 48.0684 134.815 48.1693 134.384 48.1693ZM132.269 42.7743C132.488 44.3205 133.387 45.7715 133.401 45.7911L133.44 45.8611C133.841 46.6623 134.407 46.6174 134.757 46.4886C134.939 46.3261 134.972 46.1861 134.981 46.0908C135.023 45.6819 134.659 45.1636 134.566 45.0572L134.507 44.9788C133.813 43.9452 133.065 43.2085 132.269 42.7743Z" fill="#0CAAEE"/>
<path d="M85.5463 43.4213C85.5463 45.1692 84.7256 46.5865 83.7116 46.5865C82.6976 46.5865 81.8768 45.1692 81.8768 43.4213C81.8768 41.6734 82.6976 40.256 83.7116 40.256C84.7228 40.256 85.5463 41.6734 85.5463 43.4213Z" fill="#002966"/>
<path d="M92.2805 29.8359C92.2805 29.8359 89.9415 20.8331 79.7706 23.7574C79.7706 23.7574 85.0143 25.1524 83.16 30.3037C83.16 30.3037 80.9387 33.4606 83.3925 35.7995C83.3953 35.7967 89.5914 36.3821 92.2805 29.8359Z" fill="#0CAAEE"/>
<path d="M83.1597 30.3037C83.1597 30.3037 80.9385 33.4605 83.3922 35.7995C83.3922 35.7995 85.1934 35.9675 87.2774 35.0964C88.3362 22.4297 79.7676 23.7574 79.7676 23.7574C79.7676 23.7574 85.0141 25.1496 83.1597 30.3037Z" fill="#006BC2"/>
<path d="M87.692 49.7519C87.692 50.5306 87.0618 51.1608 86.283 51.1608H81.1402C80.3615 51.1608 79.7312 50.5306 79.7312 49.7519C79.7312 48.9731 80.3615 48.3429 81.1402 48.3429H86.283C87.0618 48.3429 87.692 48.9731 87.692 49.7519Z" fill="#DFF6FD"/>
<path d="M103.092 25.8597C106.867 25.7547 109.842 22.6096 109.737 18.8348C109.632 15.06 106.487 12.0851 102.712 12.19C98.9374 12.295 95.9624 15.4402 96.0674 19.215C96.1724 22.9897 99.3175 25.9647 103.092 25.8597Z" fill="#FFDF40"/>
<path d="M106.698 19.4015C106.698 21.4995 104.997 23.1998 102.899 23.1998C100.801 23.1998 99.101 21.4995 99.101 19.4015C99.101 17.3034 100.801 15.6031 102.899 15.6031C104.997 15.6031 106.698 17.3034 106.698 19.4015Z" fill="#FFAF20"/>
<path d="M102.902 12.6704C99.2522 12.6704 96.2718 15.5304 96.0757 19.1326C96.2718 22.7349 99.2522 25.5948 102.902 25.5948C106.552 25.5948 109.532 22.7349 109.728 19.1326C109.532 15.5304 106.552 12.6704 102.902 12.6704ZM102.902 25.2671C99.7256 25.2671 97.1429 22.6845 97.1429 19.508C97.1429 16.3315 99.7256 13.7488 102.902 13.7488C106.079 13.7488 108.661 16.3315 108.661 19.508C108.658 22.6845 106.076 25.2671 102.902 25.2671Z" fill="#D18F1A"/>
<path d="M102.902 13.267C106.079 13.267 108.661 15.8497 108.661 19.0262C108.661 22.2026 106.079 24.7853 102.902 24.7853C99.7257 24.7853 97.143 22.2026 97.143 19.0262C97.1402 15.8497 99.7257 13.267 102.902 13.267ZM102.902 12.1886C99.1262 12.1886 96.0646 15.2502 96.0646 19.0262C96.0646 22.8021 99.1262 25.8637 102.902 25.8637C106.678 25.8637 109.74 22.8021 109.74 19.0262C109.74 15.2502 106.678 12.1886 102.902 12.1886Z" fill="#FFAF20"/>
<path d="M143.244 78.3428C143.244 79.805 139.715 80.9899 135.359 80.9899C131.003 80.9899 127.474 79.805 127.474 78.3428V76.7238H143.244V78.3428Z" fill="#D18F1A"/>
<path d="M143.244 76.7267C143.244 78.1888 139.715 79.3737 135.359 79.3737C131.003 79.3737 127.474 78.1888 127.474 76.7267C127.474 75.2645 131.003 74.0796 135.359 74.0796C139.715 74.0796 143.244 75.2645 143.244 76.7267Z" fill="#FFDF40"/>
<path d="M135.359 74.4269C131.177 74.4269 127.759 75.5193 127.493 76.9003C127.759 78.2812 131.18 79.3737 135.359 79.3737C139.541 79.3737 142.958 78.2812 143.224 76.9003C142.958 75.5193 139.541 74.4269 135.359 74.4269ZM140.678 78.1776C139.269 78.651 137.381 78.9115 135.359 78.9115C133.339 78.9115 131.448 78.651 130.04 78.1776C128.712 77.7322 128.28 77.242 128.28 77.074C128.28 76.9059 128.709 76.4157 130.04 75.9703C131.448 75.4969 133.336 75.2364 135.359 75.2364C137.381 75.2364 139.269 75.4969 140.678 75.9703C142.006 76.4157 142.437 76.9059 142.437 77.074C142.435 77.2392 142.006 77.7322 140.678 78.1776Z" fill="#D18F1A"/>
<path d="M135.359 74.8891C137.381 74.8891 139.269 75.1496 140.678 75.623C142.006 76.0684 142.437 76.5586 142.437 76.7267C142.437 76.8947 142.009 77.3849 140.678 77.8303C139.269 78.3037 137.381 78.5642 135.359 78.5642C133.339 78.5642 131.448 78.3037 130.039 77.8303C128.712 77.3849 128.28 76.8947 128.28 76.7267C128.28 76.5586 128.709 76.0684 130.039 75.623C131.448 75.1496 133.339 74.8891 135.359 74.8891ZM135.359 74.0796C131.003 74.0796 127.474 75.2645 127.474 76.7267C127.474 78.1888 131.003 79.3737 135.359 79.3737C139.715 79.3737 143.244 78.1888 143.244 76.7267C143.244 75.2645 139.715 74.0796 135.359 74.0796Z" fill="#FFAF20"/>
<path d="M135.359 75.6986C138.308 75.6986 140.364 76.2644 141.258 76.7266C140.364 77.1888 138.308 77.7546 135.359 77.7546C132.412 77.7546 130.356 77.1888 129.46 76.7266C130.356 76.2644 132.412 75.6986 135.359 75.6986Z" fill="#FFAF20"/>
<path d="M79.7704 81.7995C79.7704 83.2617 76.2409 84.4465 71.8852 84.4465C67.5294 84.4465 64 83.2617 64 81.7995V80.1832H79.7704V81.7995Z" fill="#D18F1A"/>
<path d="M79.7704 80.1805C79.7704 81.6427 76.2409 82.8276 71.8852 82.8276C67.5294 82.8276 64 81.6427 64 80.1805C64 78.7183 67.5294 77.5334 71.8852 77.5334C76.2409 77.5362 79.7704 78.7211 79.7704 80.1805Z" fill="#FFDF40"/>
<path d="M71.8852 77.8807C67.7031 77.8807 64.2858 78.9732 64.0197 80.3541C64.2858 81.7351 67.7059 82.8275 71.8852 82.8275C76.0673 82.8275 79.4847 81.7351 79.7508 80.3541C79.4847 78.9732 76.0673 77.8807 71.8852 77.8807ZM77.2046 81.6315C75.7956 82.1048 73.9076 82.3654 71.8852 82.3654C69.8656 82.3654 67.9749 82.1048 66.5659 81.6315C65.2381 81.1861 64.8068 80.6959 64.8068 80.5278C64.8068 80.3597 65.2353 79.8695 66.5659 79.4242C67.9749 78.9508 69.8628 78.6903 71.8852 78.6903C73.9076 78.6903 75.7956 78.9508 77.2046 79.4242C78.5323 79.8695 78.9637 80.3597 78.9637 80.5278C78.9609 80.6959 78.5323 81.1861 77.2046 81.6315Z" fill="#D18F1A"/>
<path d="M71.8852 78.3429C73.9076 78.3429 75.7956 78.6034 77.2045 79.0768C78.5323 79.5221 78.9636 80.0123 78.9636 80.1804C78.9636 80.3485 78.5351 80.8387 77.2045 81.284C75.7956 81.7574 73.9076 82.0179 71.8852 82.0179C69.8656 82.0179 67.9748 81.7574 66.5658 81.284C65.2381 80.8387 64.8067 80.3485 64.8067 80.1804C64.8067 80.0123 65.2353 79.5221 66.5658 79.0768C67.9748 78.6034 69.8628 78.3429 71.8852 78.3429ZM71.8852 77.5361C67.5294 77.5361 64 78.721 64 80.1804C64 81.6426 67.5294 82.8275 71.8852 82.8275C76.2409 82.8275 79.7704 81.6426 79.7704 80.1804C79.7704 78.721 76.2409 77.5361 71.8852 77.5361Z" fill="#FFAF20"/>
<path d="M71.8852 79.1525C74.832 79.1525 76.8908 79.7183 77.7844 80.1805C76.8908 80.6427 74.8348 81.2085 71.8852 81.2085C68.9384 81.2085 66.8824 80.6427 65.986 80.1805C66.8824 79.7211 68.9356 79.1525 71.8852 79.1525Z" fill="#FFAF20"/>
<path d="M110.203 45.9512C110.118 45.866 110.011 45.8234 109.878 45.8234H107.455C107.295 45.046 106.99 44.3645 106.547 43.7948H109.846C109.979 43.7948 110.086 43.7522 110.171 43.667C110.257 43.5818 110.299 43.4753 110.299 43.3422V41.9046C110.299 41.7715 110.257 41.665 110.171 41.5798C110.086 41.4946 109.979 41.452 109.846 41.452H98.0672C97.9338 41.452 97.8271 41.4946 97.7417 41.5798C97.6563 41.665 97.6136 41.7715 97.6136 41.9046V43.7788C97.6136 43.9013 97.6563 44.0078 97.747 44.0983C97.8377 44.1888 97.9445 44.2314 98.0672 44.2314H100.122C102.113 44.2314 103.377 44.7638 103.916 45.8234H98.0672C97.9338 45.8234 97.8271 45.866 97.7417 45.9512C97.6563 46.0364 97.6136 46.1429 97.6136 46.276V47.7136C97.6136 47.8467 97.6563 47.9532 97.7417 48.0384C97.8271 48.1236 97.9338 48.1661 98.0672 48.1661H104.114C103.906 48.9382 103.42 49.5239 102.662 49.9285C101.904 50.3332 100.901 50.5355 99.6523 50.5355H98.0672C97.9445 50.5355 97.8377 50.5781 97.747 50.6686C97.6563 50.7592 97.6136 50.8656 97.6136 50.9881V52.7771C97.6136 52.8996 97.6563 53.0007 97.7417 53.0859C99.5562 55.0027 101.904 57.6863 104.792 61.1365C104.877 61.2483 104.994 61.3069 105.144 61.3069H107.903C108.1 61.3069 108.239 61.2217 108.314 61.0513C108.41 60.8809 108.389 60.7212 108.261 60.5721C105.501 57.207 103.335 54.6886 101.76 53.0167C103.367 52.8304 104.669 52.3139 105.667 51.4673C106.665 50.6207 107.279 49.5186 107.492 48.1661H109.872C110.006 48.1661 110.112 48.1236 110.198 48.0384C110.283 47.9532 110.326 47.8467 110.326 47.7136V46.276C110.326 46.1429 110.289 46.0364 110.203 45.9512Z" fill="#006BC2"/>
<path d="M70.8635 33.0782L69.4737 29L68.0782 33.0782L64.0001 34.4679L68.0782 35.8634L69.4737 39.9416L70.8635 35.8634L74.9416 34.4679L70.8635 33.0782Z" fill="#FFDF40"/>
<path d="M126.391 16.6091L125.502 14L124.609 16.6091L122 17.4982L124.609 18.3909L125.502 21L126.391 18.3909L129 17.4982L126.391 16.6091Z" fill="#FFDF40"/>
<path d="M118.136 39.8636L117.501 38L116.864 39.8636L115 40.4987L116.864 41.1364L117.501 43L118.136 41.1364L120 40.4987L118.136 39.8636Z" fill="#FFDF40"/>
<path d="M80.1364 63.8636L79.5014 62L78.8637 63.8636L77.0001 64.4987L78.8637 65.1364L79.5014 67L80.1364 65.1364L82.0001 64.4987L80.1364 63.8636Z" fill="#FFDF40"/>
<path d="M85.1364 9.86361L84.5014 8L83.8637 9.86361L82.0001 10.4987L83.8637 11.1364L84.5014 13L85.1364 11.1364L87.0001 10.4987L85.1364 9.86361Z" fill="#FFDF40"/>
</svg>
