<svg width="208" height="96" viewBox="0 0 208 96" fill="none" xmlns="http://www.w3.org/2000/svg">
<path d="M32.8634 35.0782L31.4736 31L30.0782 35.0782L26 36.4679L30.0782 37.8634L31.4736 41.9416L32.8634 37.8634L36.9416 36.4679L32.8634 35.0782Z" fill="#FFDF40"/>
<path d="M65.6455 7.3545L64.5023 4L63.3545 7.3545L60 8.49766L63.3545 9.6455L64.5023 13L65.6455 9.6455L69 8.49766L65.6455 7.3545Z" fill="#FFDF40"/>
<path d="M76.3909 40.6091L75.5018 38L74.6091 40.6091L72 41.4982L74.6091 42.3909L75.5018 45L76.3909 42.3909L79 41.4982L76.3909 40.6091Z" fill="#FFDF40"/>
<path d="M93.3909 53.6091L92.5018 51L91.6091 53.6091L89 54.4982L91.6091 55.3909L92.5018 58L93.3909 55.3909L96 54.4982L93.3909 53.6091Z" fill="#FFDF40"/>
<path d="M158.391 64.6091L157.502 62L156.609 64.6091L154 65.4982L156.609 66.3909L157.502 69L158.391 66.3909L161 65.4982L158.391 64.6091Z" fill="#FFDF40"/>
<path d="M136.617 50.4251C135.499 50.4251 134.591 49.5217 134.591 48.4033C134.591 31.2694 120.622 17.3287 103.454 17.3287C86.2861 17.3287 72.3175 31.2694 72.3175 48.4033C72.3175 49.5184 71.4124 50.4251 70.2917 50.4251C69.1743 50.4251 68.2659 49.5217 68.2659 48.4033C68.2692 29.0392 84.0547 13.2885 103.458 13.2885C122.86 13.2885 138.643 29.0425 138.643 48.4033C138.643 49.5184 137.734 50.4251 136.617 50.4251Z" fill="#006BC2"/>
<path d="M136.285 48.2942C136.285 30.2272 121.558 15.5287 103.454 15.5287C85.3513 15.5287 70.6268 30.2272 70.6268 48.2942C70.6268 49.1446 70.1261 49.8759 69.4066 50.2167C69.6752 50.349 69.9769 50.4252 70.2952 50.4252C71.4126 50.4252 72.321 49.5218 72.321 48.4034C72.321 31.2695 86.2896 17.3288 103.458 17.3288C120.626 17.3288 134.594 31.2695 134.594 48.4034C134.594 49.5185 135.5 50.4252 136.62 50.4252C136.939 50.4252 137.24 50.349 137.509 50.2167C136.786 49.8759 136.285 49.1413 136.285 48.2942Z" fill="#002966"/>
<path d="M86.4885 28.1657C85.6795 28.1657 84.8771 27.8447 84.2837 27.2061C83.153 25.9917 83.2227 24.0923 84.4395 22.964C89.5654 18.2123 96.2463 15.5916 103.249 15.5916C109.605 15.5916 115.812 17.7986 120.725 21.8058C122.012 22.8548 122.204 24.7475 121.153 26.0314C120.102 27.3153 118.205 27.5072 116.919 26.4582C113.076 23.3246 108.222 21.6007 103.249 21.6007C97.7715 21.6007 92.5461 23.6489 88.5342 27.3649C87.9573 27.8976 87.2213 28.1657 86.4885 28.1657Z" fill="#0CAAEE"/>
<path d="M118.673 25.7402C114.359 22.2228 108.905 20.2837 103.322 20.2837C97.1713 20.2837 91.3027 22.5834 86.8001 26.7561C86.2265 27.2855 85.5203 27.58 84.7975 27.6429C85.3048 27.987 85.8949 28.1624 86.4851 28.1624C87.2179 28.1624 87.9539 27.8976 88.5308 27.3583C92.5427 23.639 97.7681 21.594 103.245 21.594C108.219 21.594 113.073 23.318 116.916 26.4516C118.026 27.3583 119.588 27.3384 120.672 26.4913C119.969 26.4649 119.263 26.22 118.673 25.7402Z" fill="#427FBA"/>
<path d="M80.895 28.1921C79.8075 28.1921 78.7233 27.7587 77.9275 26.9016C76.4057 25.267 76.4985 22.7092 78.1397 21.1903C85.0395 14.7908 94.0314 11.2667 103.458 11.2667C112.015 11.2667 120.37 14.2382 126.985 19.6285C128.719 21.0414 128.974 23.586 127.559 25.3166C126.143 27.0439 123.593 27.302 121.859 25.8891C116.687 21.6701 110.152 19.3506 103.458 19.3506C96.0837 19.3506 89.0514 22.1069 83.6503 27.1101C82.8711 27.8348 81.8797 28.1921 80.895 28.1921Z" fill="#006BC2"/>
<path d="M127.559 22.2855C126.143 24.0128 123.593 24.2709 121.859 22.858C116.687 18.6391 110.152 16.3195 103.457 16.3195C96.0836 16.3195 89.0512 19.0758 83.6501 24.079C82.871 24.8004 81.8796 25.161 80.8949 25.161C79.8074 25.161 78.7232 24.7276 77.9274 23.8705C77.5826 23.4999 77.324 23.0797 77.145 22.6363C76.5747 24.0459 76.8233 25.717 77.9274 26.9016C78.7265 27.7586 79.8107 28.1921 80.8949 28.1921C81.8829 28.1921 82.871 27.8347 83.6501 27.11C89.0479 22.1035 96.0836 19.3505 103.457 19.3505C110.152 19.3505 116.687 21.6734 121.859 25.889C123.59 27.302 126.143 27.0439 127.559 25.3166C128.527 24.1353 128.712 22.5668 128.175 21.2465C128.026 21.6138 127.82 21.9646 127.559 22.2855Z" fill="#002966"/>
<path d="M71.4354 49.7733L70.9347 49.8693C69.6483 50.1108 68.395 49.2571 68.153 47.9732L66.8101 40.8788C66.5681 39.5949 67.4235 38.3441 68.71 38.1026L69.2106 38.0066C70.4971 37.765 71.7504 38.6188 71.9924 39.9026L73.3319 46.9971C73.5773 48.281 72.7218 49.5318 71.4354 49.7733Z" fill="#002966"/>
<path d="M69.6382 37.9668C69.4989 37.9668 69.3564 37.98 69.2138 38.0065L68.7132 38.1025C67.4267 38.344 66.5713 39.5948 66.8133 40.8787L67.3902 43.9428C67.5295 43.9428 67.6721 43.9296 67.8146 43.9031L68.3153 43.8104C69.6017 43.5689 70.4572 42.3181 70.2151 41.0342L69.6382 37.9668Z" fill="#006BC2"/>
<path d="M74.1242 47.6754C73.8821 49.5483 72.1647 50.8719 70.288 50.6303C68.4114 50.3888 67.0852 48.6747 67.3272 46.8018C67.5692 44.929 69.2867 43.6054 71.1634 43.8469C73.04 44.0885 74.3662 45.8025 74.1242 47.6754Z" fill="#0CAAEE"/>
<path d="M72.4234 47.457C72.304 48.3934 71.442 49.0552 70.5037 48.9361C69.5653 48.817 68.9022 47.9566 69.0216 47.0202C69.1409 46.0838 70.003 45.422 70.9413 45.5411C71.8829 45.6635 72.5461 46.5205 72.4234 47.457Z" fill="#427FBA"/>
<path d="M72.0423 80.732C68.1697 80.732 65 77.5719 65 73.707V56.1794C65 52.3145 68.1697 49.1511 72.0423 49.1511C75.9149 49.1511 79.0846 52.3145 79.0846 56.1794V73.707C79.0813 77.5719 75.9149 80.732 72.0423 80.732Z" fill="#002966"/>
<path d="M65 56.1795V73.7071C65 74.3855 65.0995 75.044 65.2818 75.6661C68.0139 74.6998 69.9867 72.0891 69.9867 69.0415V51.5138C69.9867 50.8355 69.8872 50.177 69.7048 49.5549C66.9728 50.5178 65 53.1286 65 56.1795Z" fill="#006BC2"/>
<path d="M76.4721 83.7333C73.992 83.7333 71.9629 81.7082 71.9629 79.2331V50.3358C71.9629 47.8607 73.992 45.8356 76.4721 45.8356C78.9522 45.8356 80.9813 47.8607 80.9813 50.3358V79.2331C80.9813 81.7082 78.9522 83.7333 76.4721 83.7333Z" fill="#002966"/>
<path d="M71.9629 50.3358V79.2331C71.9629 79.9147 72.122 80.5566 72.3939 81.1357C74.8375 81.0927 76.8236 79.0875 76.8236 76.6388V47.7415C76.8236 47.0599 76.6644 46.4179 76.3925 45.8389C73.9489 45.8819 71.9629 47.8871 71.9629 50.3358Z" fill="#006BC2"/>
<path d="M80.9015 83.7333C80.0759 83.7333 79.3995 83.0582 79.3995 82.2343V47.3345C79.3995 46.5106 80.0759 45.8356 80.9015 45.8356C81.7271 45.8356 82.4035 46.5106 82.4035 47.3345V82.2343C82.4035 83.0582 81.7271 83.7333 80.9015 83.7333Z" fill="#0CAAEE"/>
<path d="M80.9183 45.8356C81.0377 46.0507 81.104 46.2955 81.104 46.5569V81.4567C81.104 82.2806 80.4276 82.9557 79.602 82.9557C79.5954 82.9557 79.5921 82.9557 79.5854 82.9557C79.8407 83.4189 80.3381 83.7333 80.9017 83.7333C81.7273 83.7333 82.4037 83.0582 82.4037 82.2343V47.3345C82.4037 46.5139 81.7373 45.8455 80.9183 45.8356Z" fill="#427FBA"/>
<path d="M135.735 49.7733L136.235 49.8693C137.522 50.1108 138.775 49.2571 139.017 47.9732L140.357 40.8788C140.599 39.5949 139.743 38.3441 138.457 38.1026L137.956 38.0066C136.67 37.765 135.416 38.6188 135.174 39.9026L133.835 46.9971C133.59 48.281 134.445 49.5318 135.735 49.7733Z" fill="#002966"/>
<path d="M137.529 37.9669C137.668 37.9669 137.81 37.9802 137.953 38.0066L138.454 38.1026C139.74 38.3441 140.595 39.5949 140.353 40.8788L139.777 43.9429C139.637 43.9429 139.495 43.9297 139.352 43.9032L138.851 43.8073C137.565 43.5657 136.71 42.3149 136.952 41.031L137.529 37.9669Z" fill="#006BC2"/>
<path d="M133.043 47.6754C133.285 49.5483 135.002 50.8719 136.879 50.6303C138.756 50.3888 140.082 48.6747 139.84 46.8018C139.598 44.929 137.88 43.6054 136.004 43.8469C134.127 44.0852 132.801 45.8025 133.043 47.6754Z" fill="#0CAAEE"/>
<path d="M134.744 47.457C134.863 48.3934 135.725 49.0552 136.663 48.9361C137.602 48.817 138.265 47.9566 138.145 47.0202C138.026 46.0838 137.164 45.422 136.226 45.5411C135.287 45.6635 134.624 46.5205 134.744 47.457Z" fill="#427FBA"/>
<path d="M135.128 80.732C139.001 80.732 142.171 77.5686 142.171 73.7037V56.1761C142.171 52.3112 139.001 49.1478 135.128 49.1478C131.256 49.1478 128.086 52.3112 128.086 56.1761V73.7037C128.086 77.5719 131.256 80.732 135.128 80.732Z" fill="#002966"/>
<path d="M142.167 56.1795V73.7071C142.167 74.3855 142.068 75.044 141.885 75.6661C139.153 74.6998 137.181 72.0891 137.181 69.0415V51.5138C137.181 50.8355 137.28 50.177 137.462 49.5549C140.194 50.5178 142.167 53.1286 142.167 56.1795Z" fill="#006BC2"/>
<path d="M130.695 83.7333C133.175 83.7333 135.204 81.7082 135.204 79.2331V50.3358C135.204 47.8607 133.175 45.8356 130.695 45.8356C128.215 45.8356 126.186 47.8607 126.186 50.3358V79.2331C126.186 81.7082 128.215 83.7333 130.695 83.7333Z" fill="#002966"/>
<path d="M135.205 50.3358V79.2331C135.205 79.9147 135.046 80.5566 134.774 81.1357C132.33 81.0927 130.344 79.0875 130.344 76.6388V47.7415C130.344 47.0599 130.503 46.4179 130.775 45.8389C133.219 45.8819 135.205 47.8871 135.205 50.3358Z" fill="#006BC2"/>
<path d="M126.266 83.7333C127.091 83.7333 127.768 83.0582 127.768 82.2343V47.3345C127.768 46.5106 127.091 45.8356 126.266 45.8356C125.44 45.8356 124.764 46.5106 124.764 47.3345V82.2343C124.764 83.0582 125.44 83.7333 126.266 83.7333Z" fill="#0CAAEE"/>
<path d="M126.249 45.8356C126.13 46.0507 126.063 46.2955 126.063 46.5569V81.4567C126.063 82.2806 126.74 82.9557 127.565 82.9557C127.572 82.9557 127.575 82.9557 127.582 82.9557C127.327 83.4189 126.829 83.7333 126.266 83.7333C125.44 83.7333 124.764 83.0582 124.764 82.2343V47.3345C124.764 46.5139 125.43 45.8455 126.249 45.8356Z" fill="#427FBA"/>
</svg>
