<svg width="208" height="96" viewBox="0 0 208 96" fill="none" xmlns="http://www.w3.org/2000/svg">
<path d="M94.5426 9.96313C94.5426 9.96313 102.092 13.8903 113.118 9.96313C113.118 9.96313 116.215 21.8139 103.83 21.8139C91.4457 21.8139 94.5426 9.96313 94.5426 9.96313Z" fill="#19ADE0"/>
<path d="M131.617 42.6501C133.655 42.1984 145.66 30.7235 145.66 30.7235C145.66 30.7235 134.938 19.3244 132.672 16.9833C130.406 14.6421 131.389 14.0387 126.63 13.3594C121.874 12.6802 113.117 9.96313 113.117 9.96313C113.117 19.9278 103.83 20.7588 103.83 20.7588C103.83 20.7588 94.5425 19.9278 94.5425 9.96313C94.5425 9.96313 85.7827 12.6802 81.0268 13.3594C76.2709 14.0387 77.2505 14.6421 74.988 16.9833C72.7222 19.3244 62 30.7235 62 30.7235C62 30.7235 74.0051 42.1984 76.0434 42.6501C76.0434 42.6501 80.575 38.1195 81.1785 38.2712C81.7821 38.4229 80.4233 85.3744 80.575 86.357H103.83H127.085C127.237 85.3744 125.878 38.4229 126.481 38.2712C127.085 38.1195 131.617 42.6501 131.617 42.6501Z" fill="#0CAAEE"/>
<path d="M115.017 10.5336C113.857 10.194 113.118 9.96313 113.118 9.96313C113.118 19.9278 103.83 20.7588 103.83 20.7588C103.83 20.7588 94.5428 19.9278 94.5428 9.96313C94.5428 9.96313 93.804 10.194 92.6397 10.5336C92.6397 10.5336 92.0626 22.5691 103.827 22.5691C115.595 22.5691 115.017 10.5336 115.017 10.5336Z" fill="#4E87BF"/>
<path d="M80.5488 22.5691C80.5488 22.5691 81.8186 33.1504 79.2791 39.6001C80.1333 38.8549 80.8852 38.268 81.1458 38.2713C81.8648 34.7925 82.1748 29.5694 80.5488 22.5691Z" fill="#19ADE0"/>
<path d="M127.079 22.5691C127.079 22.5691 125.809 33.1504 128.349 39.6001C127.494 38.8549 126.742 38.268 126.482 38.2713C125.763 34.7925 125.453 29.5694 127.079 22.5691Z" fill="#19ADE0"/>
<path d="M80.575 86.3578H103.83H127.085C127.108 86.2094 127.095 85.0122 127.062 83.0927H80.5981C80.5618 85.0122 80.552 86.2094 80.575 86.3578Z" fill="#4E87BF"/>
<path d="M94.3215 39.1524L98.7256 42.667L98.7109 47.4773L102.289 45.0398L105.728 47.5533L113.451 35.0232L94.3215 39.1524ZM100.793 43.8297L99.5385 46.0144L99.544 42.3374L111.028 36.6124L100.793 43.8297Z" fill="white"/>
<path d="M71.8634 48.0782L70.4736 44L69.0782 48.0782L65 49.4679L69.0782 50.8634L70.4736 54.9416L71.8634 50.8634L75.9416 49.4679L71.8634 48.0782Z" fill="#FFDF40"/>
<path d="M144.391 18.6091L143.502 16L142.609 18.6091L140 19.4982L142.609 20.3909L143.502 23L144.391 20.3909L147 19.4982L144.391 18.6091Z" fill="#FFDF40"/>
<path d="M138.136 69.8636L137.501 68L136.864 69.8636L135 70.4987L136.864 71.1364L137.501 73L138.136 71.1364L140 70.4987L138.136 69.8636Z" fill="#FFDF40"/>
<path d="M71.1364 74.8636L70.5013 73L69.8636 74.8636L68 75.4987L69.8636 76.1364L70.5013 78L71.1364 76.1364L73 75.4987L71.1364 74.8636Z" fill="#FFDF40"/>
<path d="M71.1364 12.8636L70.5013 11L69.8636 12.8636L68 13.4987L69.8636 14.1364L70.5013 16L71.1364 14.1364L73 13.4987L71.1364 12.8636Z" fill="#FFDF40"/>
</svg>
