<svg width="208" height="96" viewBox="0 0 208 96" fill="none" xmlns="http://www.w3.org/2000/svg">
<path d="M65 35.4652L100.989 13.892C102.974 12.7027 105.452 12.7027 107.436 13.892L143.427 35.4652V70.6267L65 66.6895V35.4652Z" fill="#006BC2"/>
<path d="M136.675 19.8866H71.7505V76.0652H136.675V19.8866Z" fill="white"/>
<path d="M73.7326 22.3373C73.7326 21.9679 74.0312 21.6689 74.4001 21.6689C74.7691 21.6689 75.0676 21.9679 75.0676 22.3373C75.0676 22.7067 74.7691 23.0057 74.4001 23.0057C74.0312 23.0057 73.7326 22.7067 73.7326 22.3373Z" fill="#4E87BF"/>
<path d="M133.319 22.3373C133.319 21.9679 133.618 21.6689 133.987 21.6689C134.355 21.6689 134.654 21.9679 134.654 22.3373C134.654 22.7067 134.355 23.0057 133.987 23.0057C133.618 23.0057 133.319 22.7067 133.319 22.3373Z" fill="#4E87BF"/>
<path d="M133.986 22.2644H74.4V22.4094H133.986V22.2644Z" fill="#4E87BF"/>
<path d="M74.4719 22.072H74.3271V81.7333H74.4719V22.072Z" fill="#4E87BF"/>
<path d="M134.082 22.072H133.938V81.7333H134.082V22.072Z" fill="#4E87BF"/>
<path d="M143.427 35.3685V82.3794H65V35.3685L104.213 58.874L143.427 35.3685Z" fill="#0CAAEE"/>
<path d="M65 82.3795L100.922 56.5938C102.89 55.181 105.538 55.181 107.505 56.5938L143.427 82.3795H65Z" fill="#006BC2"/>
<path d="M116.184 27.6693H92.5129C92.1693 27.6693 91.8879 27.3876 91.8879 27.0436C91.8879 26.6996 92.1693 26.4178 92.5129 26.4178H116.185C116.529 26.4178 116.81 26.6996 116.81 27.0436C116.809 27.3876 116.528 27.6693 116.184 27.6693Z" fill="#4E87BF"/>
<path d="M122.282 30.1799H86.4152C86.0716 30.1799 85.7902 29.8981 85.7902 29.5541C85.7902 29.2101 86.0716 28.9283 86.4152 28.9283H122.282C122.626 28.9283 122.907 29.2101 122.907 29.5541C122.907 29.8981 122.626 30.1799 122.282 30.1799Z" fill="#4E87BF"/>
<path d="M117.631 37.9674H91.6803C91.4317 37.9674 91.228 37.7635 91.228 37.5145C91.228 37.2655 91.4317 37.0615 91.6803 37.0615H117.631C117.88 37.0615 118.083 37.2655 118.083 37.5145C118.083 37.7635 117.88 37.9674 117.631 37.9674Z" fill="#4E87BF"/>
<path d="M94.2857 40.3322H86.9684C86.7197 40.3322 86.516 40.1282 86.516 39.8792C86.516 39.6302 86.7197 39.4263 86.9684 39.4263H94.2857C94.5344 39.4263 94.7381 39.6302 94.7381 39.8792C94.7381 40.1282 94.5344 40.3322 94.2857 40.3322Z" fill="#4E87BF"/>
<path d="M105.321 40.3322H96.4813C96.2326 40.3322 96.0289 40.1282 96.0289 39.8792C96.0289 39.6302 96.2326 39.4263 96.4813 39.4263H105.321C105.57 39.4263 105.773 39.6302 105.773 39.8792C105.773 40.1282 105.57 40.3322 105.321 40.3322Z" fill="#4E87BF"/>
<path d="M122.342 40.3322H107.06C106.812 40.3322 106.608 40.1282 106.608 39.8792C106.608 39.6302 106.812 39.4263 107.06 39.4263H122.342C122.591 39.4263 122.794 39.6302 122.794 39.8792C122.794 40.1282 122.591 40.3322 122.342 40.3322Z" fill="#4E87BF"/>
<path d="M105.379 43.0808H91.1648C90.9162 43.0808 90.7125 42.8769 90.7125 42.6279C90.7125 42.3789 90.9162 42.1749 91.1648 42.1749H105.379C105.628 42.1749 105.831 42.3789 105.831 42.6279C105.831 42.8769 105.628 43.0808 105.379 43.0808Z" fill="#4E87BF"/>
<path d="M118.145 43.0807H106.95C106.701 43.0807 106.497 42.8768 106.497 42.6278C106.497 42.3788 106.701 42.1748 106.95 42.1748H118.145C118.394 42.1748 118.598 42.3788 118.598 42.6278C118.598 42.8768 118.394 43.0807 118.145 43.0807Z" fill="#4E87BF"/>
<path d="M109.373 48.671C108.518 49.3819 107.602 49.9741 106.639 50.5147C106.721 50.2591 106.788 49.993 106.776 49.7571C106.759 49.4319 106.499 49.2886 106.24 49.1534C106.175 49.1198 106.115 49.0846 106.055 49.0494C106.156 48.9503 106.208 48.8135 106.141 48.6636C106.032 48.4171 105.724 48.4564 105.619 48.6849C105.6 48.7267 105.589 48.7685 105.584 48.8086C105.543 48.7865 105.511 48.7627 105.483 48.7291C105.642 48.4326 105.79 48.1312 105.928 47.8233C105.959 47.7536 105.92 47.6717 105.864 47.63C105.636 47.458 105.324 47.5137 105.141 47.7299C104.923 47.9871 104.978 48.3778 105.082 48.6694C105.089 48.6898 105.098 48.7103 105.106 48.7308C104.904 49.0953 104.684 49.4499 104.449 49.7947C104.427 49.7726 104.405 49.7505 104.383 49.7292C104.321 49.6694 104.256 49.5924 104.199 49.5081C104.307 49.2271 104.376 48.9314 104.402 48.6243C104.414 48.4875 104.276 48.4195 104.163 48.4621C103.846 48.5793 103.675 48.902 103.717 49.2329C103.731 49.3467 103.767 49.4548 103.82 49.5556C103.749 49.7087 103.665 49.8578 103.566 50.0011C103.502 50.0937 103.548 50.1887 103.623 50.2329C103.52 50.5786 103.38 50.9332 103.142 51.1822C102.947 51.3854 102.584 51.5402 102.347 51.2985C102.196 51.1454 102.177 50.8898 102.157 50.6875C102.106 50.1895 102.068 49.6719 102.087 49.1706C102.096 48.9331 102.122 48.6923 102.203 48.4679C102.252 48.3286 102.324 48.1173 102.391 48.3573C102.424 48.4752 102.378 48.6579 102.366 48.7783C102.345 48.9921 102.677 49.0175 102.698 48.8037C102.724 48.5522 102.836 48.0256 102.552 47.8683C102.317 47.7381 102.1 47.9248 101.991 48.1206C101.6 48.825 101.756 49.7931 101.815 50.5589C101.861 51.1699 102.09 51.9186 102.869 51.7244C103.602 51.5418 103.871 50.6163 104.04 49.9798C104.05 49.9405 104.047 49.9037 104.035 49.8734C104.037 49.8685 104.041 49.8627 104.044 49.8578C104.074 49.8889 104.104 49.9184 104.136 49.9495C104.179 49.988 104.22 50.0282 104.26 50.0708C104.183 50.1772 104.104 50.2837 104.024 50.3886C103.979 50.4483 103.992 50.5368 104.037 50.5917C104.284 50.889 104.727 50.6687 104.719 50.3034C104.717 50.219 104.696 50.1437 104.663 50.0749C104.895 49.7415 105.111 49.3983 105.312 49.0453C105.416 49.1477 105.549 49.2132 105.712 49.2058C105.723 49.205 105.734 49.2042 105.745 49.2026C105.831 49.2927 105.938 49.368 106.036 49.4237C106.13 49.4769 106.24 49.5097 106.325 49.5793C106.482 49.7087 106.436 49.8562 106.401 50.0405C106.355 50.2821 106.278 50.5237 106.208 50.7596C105.872 50.9521 105.543 51.197 105.429 51.5836C105.326 51.9358 105.417 52.3068 105.719 52.5255C105.81 52.591 105.93 52.5386 105.97 52.4428C106.159 51.9767 106.33 51.5041 106.476 51.0233C106.481 51.0086 106.486 50.993 106.491 50.9775C106.787 50.8087 107.097 50.6605 107.389 50.4877C108.165 50.0273 108.902 49.5023 109.596 48.9257C109.757 48.784 109.537 48.5342 109.373 48.671ZM105.327 48.2271C105.324 48.0936 105.394 47.8495 105.548 47.8528C105.479 48.0026 105.408 48.1517 105.332 48.2991C105.33 48.2746 105.327 48.2508 105.327 48.2271ZM105.75 52.0783C105.61 51.8154 105.811 51.491 106.04 51.2772C105.95 51.5467 105.853 51.8137 105.75 52.0783Z" fill="#4E87BF"/>
<path d="M65.441 50.6388L64.5418 48L63.6388 50.6388L61 51.5381L63.6388 52.441L64.5418 55.0798L65.441 52.441L68.0798 51.5381L65.441 50.6388Z" fill="#FFDF40"/>
<path d="M83.9001 19.0999L82.5029 15L81.1 19.0999L77 20.4971L81.1 21.9001L82.5029 26L83.9001 21.9001L88 20.4971L83.9001 19.0999Z" fill="#FFDF40"/>
<path d="M132.9 56.0999L131.503 52L130.1 56.0999L126 57.4971L130.1 58.9001L131.503 63L132.9 58.9001L137 57.4971L132.9 56.0999Z" fill="#FFDF40"/>
<path d="M112.136 68.8636L111.501 67L110.864 68.8636L109 69.4987L110.864 70.1364L111.501 72L112.136 70.1364L114 69.4987L112.136 68.8636Z" fill="#FFDF40"/>
<path d="M57.1364 24.8636L56.5013 23L55.8636 24.8636L54 25.4987L55.8636 26.1364L56.5013 28L57.1364 26.1364L59 25.4987L57.1364 24.8636Z" fill="#FFDF40"/>
<path d="M152.136 22.8636L151.501 21L150.864 22.8636L149 23.4987L150.864 24.1364L151.501 26L152.136 24.1364L154 23.4987L152.136 22.8636Z" fill="#FFDF40"/>
</svg>
