<svg width="726" height="24" viewBox="0 0 726 24" fill="none" xmlns="http://www.w3.org/2000/svg">
<path d="M710 11H20V14H710V11Z" fill="#484848"/>
<path d="M245.994 0C248.367 0 250.687 0.703788 252.66 2.02236C254.633 3.34094 256.171 5.21508 257.079 7.4078C257.987 9.60051 258.225 12.0133 257.762 14.3411C257.299 16.6689 256.156 18.807 254.478 20.4853C252.8 22.1635 250.662 23.3064 248.335 23.7694C246.007 24.2324 243.595 23.9948 241.403 23.0865C239.21 22.1783 237.336 20.6402 236.018 18.6668C234.7 16.6934 233.996 14.3734 233.996 12C233.996 8.8174 235.26 5.76515 237.51 3.51472C239.76 1.26428 242.812 0 245.994 0V0Z" fill="#00A5EC"/>
<path d="M252.236 11.9998C252.236 8.55351 249.442 5.75977 245.997 5.75977C242.551 5.75977 239.758 8.55351 239.758 11.9998C239.758 15.446 242.551 18.2398 245.997 18.2398C249.442 18.2398 252.236 15.446 252.236 11.9998Z" fill="white"/>
<path d="M479.998 0C482.371 0 484.691 0.703788 486.664 2.02236C488.637 3.34094 490.175 5.21508 491.083 7.4078C491.991 9.60051 492.229 12.0133 491.766 14.3411C491.303 16.6689 490.16 18.807 488.482 20.4853C486.804 22.1635 484.666 23.3064 482.339 23.7694C480.011 24.2324 477.599 23.9948 475.407 23.0865C473.214 22.1783 471.34 20.6402 470.022 18.6668C468.704 16.6934 468 14.3734 468 12C468 8.8174 469.264 5.76515 471.514 3.51472C473.764 1.26428 476.816 0 479.998 0V0Z" fill="#00A5EC"/>
<path d="M486.24 11.9998C486.24 8.55351 483.446 5.75977 480.001 5.75977C476.555 5.75977 473.762 8.55351 473.762 11.9998C473.762 15.446 476.555 18.2398 480.001 18.2398C483.446 18.2398 486.24 15.446 486.24 11.9998Z" fill="white"/>
<path d="M713.998 0C716.371 0 718.691 0.703788 720.664 2.02236C722.637 3.34094 724.175 5.21508 725.083 7.4078C725.991 9.60051 726.229 12.0133 725.766 14.3411C725.303 16.6689 724.16 18.807 722.482 20.4853C720.804 22.1635 718.666 23.3064 716.339 23.7694C714.011 24.2324 711.599 23.9948 709.407 23.0865C707.214 22.1783 705.34 20.6402 704.022 18.6668C702.704 16.6934 702 14.3734 702 12C702 8.8174 703.264 5.76515 705.514 3.51472C707.764 1.26428 710.816 0 713.998 0V0Z" fill="#00A5EC"/>
<path d="M720.24 11.9998C720.24 8.55351 717.446 5.75977 714.001 5.75977C710.555 5.75977 707.762 8.55351 707.762 11.9998C707.762 15.446 710.555 18.2398 714.001 18.2398C717.446 18.2398 720.24 15.446 720.24 11.9998Z" fill="white"/>
<path d="M11.998 0C14.371 0 16.6907 0.703788 18.6638 2.02236C20.6369 3.34094 22.1747 5.21508 23.0828 7.4078C23.9909 9.60051 24.2285 12.0133 23.7656 14.3411C23.3026 16.6689 22.1599 18.807 20.4819 20.4853C18.804 22.1635 16.6661 23.3064 14.3387 23.7694C12.0114 24.2324 9.59895 23.9948 7.40659 23.0865C5.21424 22.1783 3.3404 20.6402 2.02204 18.6668C0.703673 16.6934 0 14.3734 0 12C0 8.8174 1.26408 5.76515 3.51415 3.51472C5.76422 1.26428 8.81597 0 11.998 0V0Z" fill="#00A5EC"/>
<path d="M18.2397 11.9998C18.2397 8.55351 15.4464 5.75977 12.0007 5.75977C8.55501 5.75977 5.76172 8.55351 5.76172 11.9998C5.76172 15.446 8.55501 18.2398 12.0007 18.2398C15.4464 18.2398 18.2397 15.446 18.2397 11.9998Z" fill="white"/>
</svg>
